<mxfile host="app.diagrams.net" modified="2022-12-02T23:09:13.788Z" agent="5.0 (Windows NT 10.0; Win64; x64) AppleWebKit/537.36 (KHTML, like Gecko) Chrome/107.0.0.0 Safari/537.36 OPR/93.0.0.0" etag="6A42s7IJRWWjIjaAg-ga" version="20.6.0" type="github" pages="2">
  <diagram id="FzUg_4evW8bTKsdcM-lS" name="Page-1">
    <mxGraphModel dx="1534" dy="1166" grid="1" gridSize="10" guides="1" tooltips="1" connect="1" arrows="1" fold="1" page="1" pageScale="1" pageWidth="827" pageHeight="1169" background="#0D1117" math="0" shadow="0">
      <root>
        <mxCell id="0" />
        <mxCell id="1" parent="0" />
        <mxCell id="iwDeJrG9YnzXXPkuRzG3-109" value="Nav" style="rounded=0;whiteSpace=wrap;html=1;fontFamily=Verdana;fontSize=17;fontStyle=1;fillColor=#d80073;strokeColor=#A50040;fontColor=#ffffff;" parent="1" vertex="1">
          <mxGeometry x="313.75" y="320" width="210" height="30" as="geometry" />
        </mxCell>
        <mxCell id="iwDeJrG9YnzXXPkuRzG3-110" value="&lt;b&gt;Sym&lt;/b&gt;" style="rounded=0;whiteSpace=wrap;html=1;fontFamily=Verdana;fontSize=17;fillColor=#1ba1e2;strokeColor=#006EAF;fontStyle=0;fontColor=#ffffff;" parent="1" vertex="1">
          <mxGeometry x="313.75" y="630" width="210" height="30" as="geometry" />
        </mxCell>
        <mxCell id="qOO70KsoDbuKheBEqoZG-35" value="&lt;b&gt;Base&lt;/b&gt;" style="rounded=0;whiteSpace=wrap;html=1;fontFamily=Verdana;fontSize=17;fontColor=#AFB9C7;fillColor=#383E47;strokeColor=#1E1F20;" parent="1" vertex="1">
          <mxGeometry x="314.25" y="40" width="210" height="30" as="geometry" />
        </mxCell>
        <mxCell id="qOO70KsoDbuKheBEqoZG-253" style="edgeStyle=orthogonalEdgeStyle;rounded=1;orthogonalLoop=1;jettySize=auto;html=1;exitX=0.5;exitY=1;exitDx=0;exitDy=0;entryX=0;entryY=0.5;entryDx=0;entryDy=0;fontFamily=Verdana;fontSize=14;fontColor=#61A92F;strokeColor=#F6DC1E;fillColor=#e3c800;" parent="1" source="iwDeJrG9YnzXXPkuRzG3-107" target="qOO70KsoDbuKheBEqoZG-187" edge="1">
          <mxGeometry relative="1" as="geometry">
            <mxPoint x="548.2448974278318" y="843.1421356237308" as="sourcePoint" />
            <Array as="points">
              <mxPoint x="519.25" y="610" />
              <mxPoint x="109.25" y="610" />
              <mxPoint x="109.25" y="925" />
            </Array>
          </mxGeometry>
        </mxCell>
        <mxCell id="qOO70KsoDbuKheBEqoZG-151" value="&lt;div&gt;&lt;b&gt;Sticky Modifiers &lt;/b&gt;&lt;font style=&quot;font-size: 10px;&quot;&gt;(OSM)&lt;/font&gt;&lt;br&gt;&lt;i style=&quot;background-color: initial;&quot;&gt;&lt;font style=&quot;font-size: 9px;&quot;&gt;From left to right:&lt;/font&gt;&lt;br&gt;&lt;/i&gt;&lt;i style=&quot;font-size: 14px; background-color: initial;&quot;&gt;OS, ALT, SHIFT, CTRL, RALT&lt;/i&gt;&lt;i style=&quot;font-size: 14px; background-color: initial;&quot;&gt;&lt;br&gt;&lt;/i&gt;&lt;/div&gt;" style="text;html=1;strokeColor=none;fillColor=none;align=left;verticalAlign=middle;whiteSpace=wrap;rounded=0;shadow=0;glass=0;sketch=0;fontFamily=Verdana;fontSize=13;fontColor=#FF8000;" parent="1" vertex="1">
          <mxGeometry x="158.75" y="540" width="210" height="60" as="geometry" />
        </mxCell>
        <mxCell id="qOO70KsoDbuKheBEqoZG-187" value="&lt;font color=&quot;#5c5100&quot;&gt;Fnc/Num&lt;/font&gt;" style="rounded=0;whiteSpace=wrap;html=1;fontFamily=Verdana;fontSize=17;fontStyle=1;fillColor=#F6DC1E;strokeColor=#B09500;fontColor=#000000;" parent="1" vertex="1">
          <mxGeometry x="314.25" y="910" width="210" height="30" as="geometry" />
        </mxCell>
        <mxCell id="qOO70KsoDbuKheBEqoZG-1" value="?" style="whiteSpace=wrap;html=1;aspect=fixed;fontSize=17;fontFamily=Verdana;fontStyle=1;fontColor=#AFB9C7;fillColor=#383E47;rounded=1;strokeColor=#1E1F20;" parent="1" vertex="1">
          <mxGeometry x="219.25" y="91" width="40" height="40" as="geometry" />
        </mxCell>
        <mxCell id="qOO70KsoDbuKheBEqoZG-2" value="," style="whiteSpace=wrap;html=1;aspect=fixed;fontSize=17;fontFamily=Verdana;fontStyle=1;fontColor=#AFB9C7;fillColor=#383E47;rounded=1;strokeColor=#1E1F20;" parent="1" vertex="1">
          <mxGeometry x="259.25" y="91" width="40" height="40" as="geometry" />
        </mxCell>
        <mxCell id="qOO70KsoDbuKheBEqoZG-3" value="." style="whiteSpace=wrap;html=1;aspect=fixed;fontSize=17;fontFamily=Verdana;fontStyle=1;fontColor=#AFB9C7;fillColor=#383E47;rounded=1;strokeColor=#1E1F20;" parent="1" vertex="1">
          <mxGeometry x="299.25" y="91" width="40" height="40" as="geometry" />
        </mxCell>
        <mxCell id="qOO70KsoDbuKheBEqoZG-4" value="H" style="whiteSpace=wrap;html=1;aspect=fixed;fontSize=17;fontFamily=Verdana;fontStyle=1;fontColor=#AFB9C7;fillColor=#383E47;rounded=1;strokeColor=#1E1F20;" parent="1" vertex="1">
          <mxGeometry x="339.25" y="91" width="40" height="40" as="geometry" />
        </mxCell>
        <mxCell id="qOO70KsoDbuKheBEqoZG-5" value="X" style="whiteSpace=wrap;html=1;aspect=fixed;fontSize=17;fontFamily=Verdana;fontStyle=1;fontColor=#AFB9C7;fillColor=#383E47;rounded=1;strokeColor=#1E1F20;" parent="1" vertex="1">
          <mxGeometry x="379.25" y="91" width="40" height="40" as="geometry" />
        </mxCell>
        <mxCell id="qOO70KsoDbuKheBEqoZG-6" value="I" style="whiteSpace=wrap;html=1;aspect=fixed;fontSize=17;fontFamily=Verdana;fontStyle=1;fontColor=#AFB9C7;fillColor=#383E47;rounded=1;strokeColor=#1E1F20;" parent="1" vertex="1">
          <mxGeometry x="219.25" y="131" width="40" height="40" as="geometry" />
        </mxCell>
        <mxCell id="qOO70KsoDbuKheBEqoZG-7" value="E" style="whiteSpace=wrap;html=1;aspect=fixed;fontSize=17;fontFamily=Verdana;fontStyle=1;fontColor=#AFB9C7;fillColor=#383E47;rounded=1;strokeColor=#1E1F20;" parent="1" vertex="1">
          <mxGeometry x="259.25" y="131" width="40" height="40" as="geometry" />
        </mxCell>
        <mxCell id="qOO70KsoDbuKheBEqoZG-8" value="A" style="whiteSpace=wrap;html=1;aspect=fixed;fontSize=17;fontFamily=Verdana;fontStyle=1;fontColor=#AFB9C7;fillColor=#383E47;rounded=1;strokeColor=#1E1F20;" parent="1" vertex="1">
          <mxGeometry x="299.25" y="131" width="40" height="40" as="geometry" />
        </mxCell>
        <mxCell id="qOO70KsoDbuKheBEqoZG-9" value="O" style="whiteSpace=wrap;html=1;aspect=fixed;fontSize=17;fontFamily=Verdana;fontStyle=1;fontColor=#AFB9C7;fillColor=#383E47;rounded=1;strokeColor=#1E1F20;" parent="1" vertex="1">
          <mxGeometry x="339.25" y="131" width="40" height="40" as="geometry" />
        </mxCell>
        <mxCell id="qOO70KsoDbuKheBEqoZG-10" value="U" style="whiteSpace=wrap;html=1;aspect=fixed;fontSize=17;fontFamily=Verdana;fontStyle=1;fontColor=#AFB9C7;fillColor=#383E47;rounded=1;strokeColor=#1E1F20;" parent="1" vertex="1">
          <mxGeometry x="379.25" y="131" width="40" height="40" as="geometry" />
        </mxCell>
        <mxCell id="qOO70KsoDbuKheBEqoZG-11" value="Y" style="whiteSpace=wrap;html=1;aspect=fixed;fontSize=17;fontFamily=Verdana;fontStyle=1;fontColor=#AFB9C7;fillColor=#383E47;rounded=1;strokeColor=#1E1F20;" parent="1" vertex="1">
          <mxGeometry x="219.25" y="171" width="40" height="40" as="geometry" />
        </mxCell>
        <mxCell id="qOO70KsoDbuKheBEqoZG-12" value="Ç" style="whiteSpace=wrap;html=1;aspect=fixed;fontSize=17;fontFamily=Verdana;fontStyle=1;fontColor=#AFB9C7;fillColor=#383E47;rounded=1;strokeColor=#1E1F20;" parent="1" vertex="1">
          <mxGeometry x="259.25" y="171" width="40" height="40" as="geometry" />
        </mxCell>
        <mxCell id="qOO70KsoDbuKheBEqoZG-13" value="J" style="whiteSpace=wrap;html=1;aspect=fixed;fontSize=17;fontFamily=Verdana;fontStyle=1;fontColor=#AFB9C7;fillColor=#383E47;rounded=1;strokeColor=#1E1F20;" parent="1" vertex="1">
          <mxGeometry x="299.25" y="171" width="40" height="40" as="geometry" />
        </mxCell>
        <mxCell id="qOO70KsoDbuKheBEqoZG-14" value="B" style="whiteSpace=wrap;html=1;aspect=fixed;fontSize=17;fontFamily=Verdana;fontStyle=1;fontColor=#AFB9C7;fillColor=#383E47;rounded=1;strokeColor=#1E1F20;" parent="1" vertex="1">
          <mxGeometry x="339.25" y="171" width="40" height="40" as="geometry" />
        </mxCell>
        <mxCell id="qOO70KsoDbuKheBEqoZG-15" value="K" style="whiteSpace=wrap;html=1;aspect=fixed;fontSize=17;fontFamily=Verdana;fontStyle=1;fontColor=#AFB9C7;fillColor=#383E47;rounded=1;strokeColor=#1E1F20;" parent="1" vertex="1">
          <mxGeometry x="379.25" y="171" width="40" height="40" as="geometry" />
        </mxCell>
        <mxCell id="qOO70KsoDbuKheBEqoZG-18" value="Y" style="whiteSpace=wrap;html=1;aspect=fixed;fontSize=17;fontFamily=Verdana;fontStyle=1;fontColor=#AFB9C7;fillColor=#383E47;rounded=1;strokeColor=#1E1F20;" parent="1" vertex="1">
          <mxGeometry x="419.25" y="91" width="40" height="40" as="geometry" />
        </mxCell>
        <mxCell id="qOO70KsoDbuKheBEqoZG-19" value="W&lt;br&gt;" style="whiteSpace=wrap;html=1;aspect=fixed;fontSize=17;fontFamily=Verdana;fontStyle=1;fontColor=#AFB9C7;fillColor=#383E47;rounded=1;strokeColor=#1E1F20;" parent="1" vertex="1">
          <mxGeometry x="459.25" y="91" width="40" height="40" as="geometry" />
        </mxCell>
        <mxCell id="qOO70KsoDbuKheBEqoZG-20" value="L" style="whiteSpace=wrap;html=1;aspect=fixed;fontSize=17;fontFamily=Verdana;fontStyle=1;fontColor=#AFB9C7;fillColor=#383E47;rounded=1;strokeColor=#1E1F20;" parent="1" vertex="1">
          <mxGeometry x="499.25" y="91" width="40" height="40" as="geometry" />
        </mxCell>
        <mxCell id="qOO70KsoDbuKheBEqoZG-21" value="C" style="whiteSpace=wrap;html=1;aspect=fixed;fontSize=17;fontFamily=Verdana;fontStyle=1;fontColor=#AFB9C7;fillColor=#383E47;rounded=1;strokeColor=#1E1F20;" parent="1" vertex="1">
          <mxGeometry x="539.25" y="91" width="40" height="40" as="geometry" />
        </mxCell>
        <mxCell id="qOO70KsoDbuKheBEqoZG-22" value="P" style="whiteSpace=wrap;html=1;aspect=fixed;fontSize=17;fontFamily=Verdana;fontStyle=1;fontColor=#AFB9C7;fillColor=#383E47;rounded=1;strokeColor=#1E1F20;" parent="1" vertex="1">
          <mxGeometry x="579.25" y="91" width="40" height="40" as="geometry" />
        </mxCell>
        <mxCell id="qOO70KsoDbuKheBEqoZG-23" value="M" style="whiteSpace=wrap;html=1;aspect=fixed;fontSize=17;fontFamily=Verdana;fontStyle=1;fontColor=#AFB9C7;fillColor=#383E47;rounded=1;strokeColor=#1E1F20;" parent="1" vertex="1">
          <mxGeometry x="419.25" y="131" width="40" height="40" as="geometry" />
        </mxCell>
        <mxCell id="qOO70KsoDbuKheBEqoZG-24" value="D" style="whiteSpace=wrap;html=1;aspect=fixed;fontSize=17;fontFamily=Verdana;fontStyle=1;fontColor=#AFB9C7;fillColor=#383E47;rounded=1;strokeColor=#1E1F20;" parent="1" vertex="1">
          <mxGeometry x="459.25" y="131" width="40" height="40" as="geometry" />
        </mxCell>
        <mxCell id="qOO70KsoDbuKheBEqoZG-25" value="S" style="whiteSpace=wrap;html=1;aspect=fixed;fontSize=17;fontFamily=Verdana;fontStyle=1;fontColor=#AFB9C7;fillColor=#383E47;rounded=1;strokeColor=#1E1F20;" parent="1" vertex="1">
          <mxGeometry x="499.25" y="131" width="40" height="40" as="geometry" />
        </mxCell>
        <mxCell id="qOO70KsoDbuKheBEqoZG-26" value="R" style="whiteSpace=wrap;html=1;aspect=fixed;fontSize=17;fontFamily=Verdana;fontStyle=1;fontColor=#AFB9C7;fillColor=#383E47;rounded=1;strokeColor=#1E1F20;" parent="1" vertex="1">
          <mxGeometry x="539.25" y="131" width="40" height="40" as="geometry" />
        </mxCell>
        <mxCell id="qOO70KsoDbuKheBEqoZG-27" value="N" style="whiteSpace=wrap;html=1;aspect=fixed;fontSize=17;fontFamily=Verdana;fontStyle=1;fontColor=#AFB9C7;fillColor=#383E47;rounded=1;strokeColor=#1E1F20;" parent="1" vertex="1">
          <mxGeometry x="579.25" y="131" width="40" height="40" as="geometry" />
        </mxCell>
        <mxCell id="qOO70KsoDbuKheBEqoZG-28" value="Q" style="whiteSpace=wrap;html=1;aspect=fixed;fontSize=17;fontFamily=Verdana;fontStyle=1;fontColor=#AFB9C7;fillColor=#383E47;rounded=1;strokeColor=#1E1F20;" parent="1" vertex="1">
          <mxGeometry x="419.25" y="171" width="40" height="40" as="geometry" />
        </mxCell>
        <mxCell id="qOO70KsoDbuKheBEqoZG-29" value="V" style="whiteSpace=wrap;html=1;aspect=fixed;fontSize=17;fontFamily=Verdana;fontStyle=1;fontColor=#AFB9C7;fillColor=#383E47;rounded=1;strokeColor=#1E1F20;" parent="1" vertex="1">
          <mxGeometry x="459.25" y="171" width="40" height="40" as="geometry" />
        </mxCell>
        <mxCell id="qOO70KsoDbuKheBEqoZG-30" value="G" style="whiteSpace=wrap;html=1;aspect=fixed;fontSize=17;fontFamily=Verdana;fontStyle=1;fontColor=#AFB9C7;fillColor=#383E47;rounded=1;strokeColor=#1E1F20;" parent="1" vertex="1">
          <mxGeometry x="499.25" y="171" width="40" height="40" as="geometry" />
        </mxCell>
        <mxCell id="qOO70KsoDbuKheBEqoZG-31" value="F" style="whiteSpace=wrap;html=1;aspect=fixed;fontSize=17;fontFamily=Verdana;fontStyle=1;fontColor=#AFB9C7;fillColor=#383E47;rounded=1;strokeColor=#1E1F20;" parent="1" vertex="1">
          <mxGeometry x="539.25" y="171" width="40" height="40" as="geometry" />
        </mxCell>
        <mxCell id="qOO70KsoDbuKheBEqoZG-32" value="Z" style="whiteSpace=wrap;html=1;aspect=fixed;fontSize=17;fontFamily=Verdana;fontStyle=1;fontColor=#AFB9C7;fillColor=#383E47;rounded=1;strokeColor=#1E1F20;" parent="1" vertex="1">
          <mxGeometry x="579.25" y="171" width="40" height="40" as="geometry" />
        </mxCell>
        <mxCell id="qOO70KsoDbuKheBEqoZG-33" value="[" style="whiteSpace=wrap;html=1;aspect=fixed;rotation=0;fontSize=20;fontFamily=Verdana;fontStyle=0;fontColor=#AFB9C7;fillColor=#383E47;rounded=1;strokeColor=#1E1F20;horizontal=0;spacingLeft=-12;spacingTop=-6;" parent="1" vertex="1">
          <mxGeometry x="459.25" y="211" width="40" height="40" as="geometry" />
        </mxCell>
        <mxCell id="gDNsKO5x_6u3mnAIkDh--76" value="" style="edgeStyle=orthogonalEdgeStyle;rounded=1;orthogonalLoop=1;jettySize=auto;html=1;fontSize=14;fontColor=#61A92F;fontFamily=Verdana;strokeColor=#F6DC1E;fillColor=#e3c800;" parent="1" source="iwDeJrG9YnzXXPkuRzG3-3" edge="1">
          <mxGeometry relative="1" as="geometry">
            <mxPoint x="109.25" y="700" as="targetPoint" />
            <Array as="points">
              <mxPoint x="419.25" y="290" />
              <mxPoint x="109.25" y="290" />
              <mxPoint x="109.25" y="700" />
            </Array>
          </mxGeometry>
        </mxCell>
        <mxCell id="iwDeJrG9YnzXXPkuRzG3-3" value="&lt;p style=&quot;line-height: 0%;&quot;&gt;&lt;font style=&quot;font-size: 16px;&quot;&gt;⏎&lt;/font&gt;&lt;br&gt;&lt;/p&gt;&lt;div style=&quot;line-height: 40%; font-size: 10px;&quot;&gt;&lt;font color=&quot;#1f1f1f&quot; style=&quot;font-size: 10px; background-color: rgb(246, 220, 30);&quot;&gt;&amp;nbsp;&lt;/font&gt;&lt;font color=&quot;#5c5100&quot; style=&quot;font-size: 10px; background-color: rgb(246, 220, 30);&quot;&gt;Fnc/Num&lt;/font&gt;&lt;font color=&quot;#1f1f1f&quot; style=&quot;font-size: 10px; background-color: rgb(246, 220, 30);&quot;&gt;&amp;nbsp;&lt;/font&gt;&lt;br&gt;&lt;/div&gt;&lt;p&gt;&lt;/p&gt;" style="whiteSpace=wrap;html=1;rotation=0;fontSize=12;fontFamily=Verdana;fontStyle=1;fontColor=#AFB9C7;fillColor=#383E47;rounded=1;spacingBottom=-1;strokeColor=#1E1F20;" parent="1" vertex="1">
          <mxGeometry x="379.25" y="211" width="80" height="40" as="geometry" />
        </mxCell>
        <mxCell id="iwDeJrG9YnzXXPkuRzG3-5" value="" style="whiteSpace=wrap;html=1;aspect=fixed;fontSize=17;fontFamily=Verdana;fontStyle=1;fontColor=#AFB9C7;fillColor=#383E47;rounded=1;strokeColor=#1E1F20;" parent="1" vertex="1">
          <mxGeometry x="219.25" y="211" width="40" height="40" as="geometry" />
        </mxCell>
        <mxCell id="iwDeJrG9YnzXXPkuRzG3-7" value="⎋" style="whiteSpace=wrap;html=1;aspect=fixed;fontSize=30;fontFamily=Verdana;fontStyle=1;fontColor=#AFB9C7;fillColor=#383E47;rounded=1;spacingTop=-12;strokeColor=#1E1F20;" parent="1" vertex="1">
          <mxGeometry x="179.25" y="91" width="40" height="40" as="geometry" />
        </mxCell>
        <mxCell id="iwDeJrG9YnzXXPkuRzG3-8" value="⌫" style="whiteSpace=wrap;html=1;aspect=fixed;fontSize=17;fontFamily=Verdana;fontStyle=1;fontColor=#AFB9C7;fillColor=#383E47;rounded=1;spacingLeft=-2;strokeColor=#1E1F20;" parent="1" vertex="1">
          <mxGeometry x="179.25" y="131" width="40" height="40" as="geometry" />
        </mxCell>
        <mxCell id="iwDeJrG9YnzXXPkuRzG3-9" value="" style="whiteSpace=wrap;html=1;aspect=fixed;fontSize=17;fontFamily=Verdana;fontStyle=1;fontColor=#AFB9C7;fillColor=#383E47;rounded=1;strokeColor=#1E1F20;" parent="1" vertex="1">
          <mxGeometry x="179.25" y="171" width="40" height="40" as="geometry" />
        </mxCell>
        <mxCell id="iwDeJrG9YnzXXPkuRzG3-10" value="" style="whiteSpace=wrap;html=1;aspect=fixed;fontSize=17;fontFamily=Verdana;fontStyle=1;fontColor=#AFB9C7;fillColor=#383E47;rounded=1;strokeColor=#1E1F20;" parent="1" vertex="1">
          <mxGeometry x="179.25" y="211" width="40" height="40" as="geometry" />
        </mxCell>
        <mxCell id="iwDeJrG9YnzXXPkuRzG3-11" value="" style="whiteSpace=wrap;html=1;aspect=fixed;fontSize=17;fontFamily=Verdana;fontStyle=1;fontColor=#AFB9C7;fillColor=#383E47;rounded=1;strokeColor=#1E1F20;" parent="1" vertex="1">
          <mxGeometry x="539.25" y="211" width="40" height="40" as="geometry" />
        </mxCell>
        <mxCell id="iwDeJrG9YnzXXPkuRzG3-13" value="&lt;p style=&quot;line-height: 90%; font-size: 12px;&quot;&gt;^&lt;br style=&quot;font-size: 12px;&quot;&gt;~&lt;/p&gt;" style="whiteSpace=wrap;html=1;aspect=fixed;fontSize=12;fontFamily=Verdana;fontStyle=1;fontColor=#AFB9C7;fillColor=#383E47;rounded=1;spacingTop=-2;strokeColor=#1E1F20;" parent="1" vertex="1">
          <mxGeometry x="619.25" y="91" width="40" height="40" as="geometry" />
        </mxCell>
        <mxCell id="iwDeJrG9YnzXXPkuRzG3-119" value="" style="edgeStyle=orthogonalEdgeStyle;rounded=1;orthogonalLoop=1;jettySize=auto;html=1;fontSize=14;fontColor=#9933FF;fontFamily=Verdana;strokeColor=#1BA1E2;fillColor=#1ba1e2;entryX=1;entryY=0.5;entryDx=0;entryDy=0;" parent="1" source="qOO70KsoDbuKheBEqoZG-34" target="iwDeJrG9YnzXXPkuRzG3-110" edge="1">
          <mxGeometry relative="1" as="geometry">
            <mxPoint x="279.25" y="640" as="targetPoint" />
            <Array as="points">
              <mxPoint x="519.25" y="290" />
              <mxPoint x="709.25" y="290" />
              <mxPoint x="709.25" y="645" />
            </Array>
          </mxGeometry>
        </mxCell>
        <mxCell id="qOO70KsoDbuKheBEqoZG-34" value="Sym" style="whiteSpace=wrap;html=1;aspect=fixed;rotation=0;fontSize=13;fontFamily=Verdana;fontStyle=1;fillColor=#1ba1e2;strokeColor=#006EAF;fontColor=#ffffff;rounded=1;fillStyle=solid;" parent="1" vertex="1">
          <mxGeometry x="499.25" y="211" width="40" height="40" as="geometry" />
        </mxCell>
        <mxCell id="iwDeJrG9YnzXXPkuRzG3-15" value="" style="whiteSpace=wrap;html=1;aspect=fixed;fontSize=17;fontFamily=Verdana;fontStyle=1;fontColor=#AFB9C7;fillColor=#383E47;rounded=1;glass=0;strokeColor=#1E1F20;" parent="1" vertex="1">
          <mxGeometry x="619.25" y="171" width="40" height="40" as="geometry" />
        </mxCell>
        <mxCell id="iwDeJrG9YnzXXPkuRzG3-17" value="&lt;p style=&quot;line-height: 90%; font-size: 16px;&quot;&gt;`&lt;br style=&quot;font-size: 16px;&quot;&gt;´&lt;/p&gt;" style="whiteSpace=wrap;html=1;aspect=fixed;fontSize=16;fontFamily=Verdana;fontStyle=1;fontColor=#AFB9C7;fillColor=#383E47;rounded=1;spacingBottom=-7;strokeColor=#1E1F20;" parent="1" vertex="1">
          <mxGeometry x="619.25" y="131" width="40" height="40" as="geometry" />
        </mxCell>
        <mxCell id="qOO70KsoDbuKheBEqoZG-16" value="Nav" style="whiteSpace=wrap;html=1;aspect=fixed;rotation=0;fontSize=13;fontFamily=Verdana;fontStyle=1;fillColor=#D80073;strokeColor=#6F0000;fontColor=#ffffff;rounded=1;" parent="1" vertex="1">
          <mxGeometry x="299.25" y="211" width="40" height="40" as="geometry" />
        </mxCell>
        <mxCell id="iwDeJrG9YnzXXPkuRzG3-18" value="⏮" style="whiteSpace=wrap;html=1;aspect=fixed;fontSize=20;fontFamily=Verdana;fontStyle=1;fontColor=#AFB9C7;fillColor=#383E47;rounded=1;spacingTop=-6;strokeColor=#1E1F20;" parent="1" vertex="1">
          <mxGeometry x="218.75" y="369.65999999999997" width="40" height="40" as="geometry" />
        </mxCell>
        <mxCell id="iwDeJrG9YnzXXPkuRzG3-19" value="☰" style="whiteSpace=wrap;html=1;aspect=fixed;fontSize=16;fontFamily=Verdana;fontStyle=1;fontColor=#AFB9C7;fillColor=#383E47;rounded=1;spacingTop=-4;strokeColor=#1E1F20;" parent="1" vertex="1">
          <mxGeometry x="258.75" y="369.65999999999997" width="40" height="40" as="geometry" />
        </mxCell>
        <mxCell id="iwDeJrG9YnzXXPkuRzG3-20" value="⏯" style="whiteSpace=wrap;html=1;aspect=fixed;fontSize=20;fontFamily=Verdana;fontStyle=1;fontColor=#AFB9C7;fillColor=#383E47;rounded=1;spacingTop=-6;strokeColor=#1E1F20;" parent="1" vertex="1">
          <mxGeometry x="298.75" y="369.65999999999997" width="40" height="40" as="geometry" />
        </mxCell>
        <mxCell id="iwDeJrG9YnzXXPkuRzG3-21" value="⏭" style="whiteSpace=wrap;html=1;aspect=fixed;fontSize=20;fontFamily=Verdana;fontStyle=1;fontColor=#AFB9C7;fillColor=#383E47;rounded=1;spacingTop=-6;strokeColor=#1E1F20;" parent="1" vertex="1">
          <mxGeometry x="338.75" y="369.65999999999997" width="40" height="40" as="geometry" />
        </mxCell>
        <mxCell id="iwDeJrG9YnzXXPkuRzG3-22" value="" style="whiteSpace=wrap;html=1;aspect=fixed;fontSize=17;fontFamily=Verdana;fontStyle=1;fontColor=#AFB9C7;fillColor=#383E47;rounded=1;strokeColor=#1E1F20;" parent="1" vertex="1">
          <mxGeometry x="378.75" y="369.65999999999997" width="40" height="40" as="geometry" />
        </mxCell>
        <mxCell id="iwDeJrG9YnzXXPkuRzG3-29" value="✂" style="whiteSpace=wrap;html=1;aspect=fixed;fontSize=17;fontFamily=Verdana;fontStyle=1;fontColor=#AFB9C7;fillColor=#383E47;rounded=1;strokeColor=#1E1F20;" parent="1" vertex="1">
          <mxGeometry x="218.75" y="449.31999999999994" width="40" height="40" as="geometry" />
        </mxCell>
        <mxCell id="iwDeJrG9YnzXXPkuRzG3-30" value="" style="whiteSpace=wrap;html=1;aspect=fixed;fontSize=17;fontFamily=Verdana;fontStyle=1;fontColor=#AFB9C7;fillColor=#383E47;rounded=1;strokeColor=#1E1F20;" parent="1" vertex="1">
          <mxGeometry x="298.75" y="449.65999999999997" width="40" height="40" as="geometry" />
        </mxCell>
        <mxCell id="iwDeJrG9YnzXXPkuRzG3-31" value="" style="whiteSpace=wrap;html=1;aspect=fixed;fontSize=17;fontFamily=Verdana;fontStyle=1;fontColor=#AFB9C7;fillColor=#383E47;rounded=1;strokeColor=#1E1F20;" parent="1" vertex="1">
          <mxGeometry x="378.75" y="449.65999999999997" width="40" height="40" as="geometry" />
        </mxCell>
        <mxCell id="iwDeJrG9YnzXXPkuRzG3-32" value="↶" style="whiteSpace=wrap;html=1;aspect=fixed;fontSize=23;fontFamily=Verdana;fontStyle=1;fontColor=#AFB9C7;fillColor=#383E47;rounded=1;spacingBottom=-1;strokeColor=#1E1F20;" parent="1" vertex="1">
          <mxGeometry x="258.75" y="449.32" width="40" height="40" as="geometry" />
        </mxCell>
        <mxCell id="iwDeJrG9YnzXXPkuRzG3-34" value="pg&lt;br&gt;up" style="whiteSpace=wrap;html=1;aspect=fixed;fontSize=10;fontFamily=Verdana;fontStyle=1;fontColor=#AFB9C7;fillColor=#383E47;rounded=1;spacingTop=-4;strokeColor=#1E1F20;" parent="1" vertex="1">
          <mxGeometry x="418.75" y="369.65999999999997" width="40" height="40" as="geometry" />
        </mxCell>
        <mxCell id="iwDeJrG9YnzXXPkuRzG3-37" value="⌫" style="whiteSpace=wrap;html=1;aspect=fixed;fontSize=16;fontFamily=Verdana;fontStyle=1;fontColor=#AFB9C7;fillColor=#383E47;rounded=1;spacingTop=-4;strokeColor=#1E1F20;" parent="1" vertex="1">
          <mxGeometry x="538.75" y="369.65999999999997" width="40" height="40" as="geometry" />
        </mxCell>
        <mxCell id="iwDeJrG9YnzXXPkuRzG3-38" value="pg&lt;br style=&quot;font-size: 10px;&quot;&gt;dw" style="whiteSpace=wrap;html=1;aspect=fixed;fontSize=10;fontFamily=Verdana;fontStyle=1;fontColor=#AFB9C7;fillColor=#383E47;rounded=1;spacingTop=-4;strokeColor=#1E1F20;" parent="1" vertex="1">
          <mxGeometry x="578.75" y="369.65999999999997" width="40" height="40" as="geometry" />
        </mxCell>
        <mxCell id="iwDeJrG9YnzXXPkuRzG3-39" value="home" style="whiteSpace=wrap;html=1;aspect=fixed;fontSize=10;fontFamily=Verdana;fontStyle=1;fontColor=#AFB9C7;fillColor=#383E47;rounded=1;strokeColor=#1E1F20;spacingTop=-1;spacingBottom=-1;" parent="1" vertex="1">
          <mxGeometry x="418.75" y="409.65999999999997" width="40" height="40" as="geometry" />
        </mxCell>
        <mxCell id="iwDeJrG9YnzXXPkuRzG3-43" value="end" style="whiteSpace=wrap;html=1;aspect=fixed;fontSize=10;fontFamily=Verdana;fontStyle=1;fontColor=#AFB9C7;fillColor=#383E47;rounded=1;strokeColor=#1E1F20;spacingBottom=-1;" parent="1" vertex="1">
          <mxGeometry x="578.75" y="409.65999999999997" width="40" height="40" as="geometry" />
        </mxCell>
        <mxCell id="iwDeJrG9YnzXXPkuRzG3-44" value="" style="whiteSpace=wrap;html=1;aspect=fixed;fontSize=15;fontFamily=Verdana;fontStyle=1;fontColor=#AFB9C7;fillColor=#383E47;rounded=1;spacingTop=-3;spacingLeft=-1;strokeColor=#1E1F20;" parent="1" vertex="1">
          <mxGeometry x="418.75" y="449.65999999999997" width="40" height="40" as="geometry" />
        </mxCell>
        <mxCell id="iwDeJrG9YnzXXPkuRzG3-45" value="&lt;p style=&quot;line-height: 6px; font-size: 24px;&quot;&gt;&lt;font style=&quot;font-size: 24px;&quot;&gt;⏎&lt;/font&gt;&lt;/p&gt;" style="whiteSpace=wrap;html=1;aspect=fixed;fontSize=24;fontFamily=Verdana;fontStyle=1;fontColor=#AFB9C7;fillColor=#383E47;rounded=1;spacingTop=-3;strokeColor=#1E1F20;" parent="1" vertex="1">
          <mxGeometry x="458.75" y="449.65999999999997" width="40" height="40" as="geometry" />
        </mxCell>
        <mxCell id="iwDeJrG9YnzXXPkuRzG3-46" value="" style="whiteSpace=wrap;html=1;aspect=fixed;fontSize=19;fontFamily=Verdana;fontStyle=1;fontColor=#AFB9C7;fillColor=#383E47;rounded=1;strokeColor=#1E1F20;" parent="1" vertex="1">
          <mxGeometry x="498.75" y="449.65999999999997" width="40" height="40" as="geometry" />
        </mxCell>
        <mxCell id="iwDeJrG9YnzXXPkuRzG3-47" value="" style="whiteSpace=wrap;html=1;aspect=fixed;fontSize=17;fontFamily=Verdana;fontStyle=1;fontColor=#AFB9C7;fillColor=#383E47;rounded=1;strokeColor=#1E1F20;" parent="1" vertex="1">
          <mxGeometry x="538.75" y="449.65999999999997" width="40" height="40" as="geometry" />
        </mxCell>
        <mxCell id="iwDeJrG9YnzXXPkuRzG3-48" value="" style="whiteSpace=wrap;html=1;aspect=fixed;fontSize=17;fontFamily=Verdana;fontStyle=1;fontColor=#AFB9C7;fillColor=#383E47;rounded=1;strokeColor=#1E1F20;" parent="1" vertex="1">
          <mxGeometry x="578.75" y="449.65999999999997" width="40" height="40" as="geometry" />
        </mxCell>
        <mxCell id="iwDeJrG9YnzXXPkuRzG3-51" value="" style="whiteSpace=wrap;html=1;aspect=fixed;fontSize=17;fontFamily=Verdana;fontStyle=1;fontColor=#AFB9C7;fillColor=#383E47;rounded=1;strokeColor=#1E1F20;" parent="1" vertex="1">
          <mxGeometry x="218.75" y="489.65999999999997" width="40" height="40" as="geometry" />
        </mxCell>
        <mxCell id="iwDeJrG9YnzXXPkuRzG3-52" value="" style="whiteSpace=wrap;html=1;aspect=fixed;fontSize=17;fontFamily=Verdana;fontStyle=1;fontColor=#AFB9C7;fillColor=#383E47;rounded=1;strokeColor=#1E1F20;" parent="1" vertex="1">
          <mxGeometry x="258.75" y="489.65999999999997" width="40" height="40" as="geometry" />
        </mxCell>
        <mxCell id="iwDeJrG9YnzXXPkuRzG3-53" value="⎋" style="whiteSpace=wrap;html=1;aspect=fixed;fontSize=30;fontFamily=Verdana;fontStyle=1;fontColor=#AFB9C7;fillColor=#383E47;rounded=1;spacingTop=-12;strokeColor=#1E1F20;" parent="1" vertex="1">
          <mxGeometry x="178.75" y="369.65999999999997" width="40" height="40" as="geometry" />
        </mxCell>
        <mxCell id="iwDeJrG9YnzXXPkuRzG3-54" value="✲⌫" style="whiteSpace=wrap;html=1;aspect=fixed;fontSize=13;fontFamily=Verdana;fontStyle=1;fontColor=#AFB9C7;fillColor=#383E47;rounded=1;spacingLeft=-2;strokeColor=#1E1F20;" parent="1" vertex="1">
          <mxGeometry x="178.75" y="409.65999999999997" width="40" height="40" as="geometry" />
        </mxCell>
        <mxCell id="iwDeJrG9YnzXXPkuRzG3-55" value="⇧⌦" style="whiteSpace=wrap;html=1;aspect=fixed;fontSize=15;fontFamily=Verdana;fontStyle=1;fontColor=#AFB9C7;fillColor=#383E47;rounded=1;spacingTop=-4;strokeColor=#1E1F20;" parent="1" vertex="1">
          <mxGeometry x="178.75" y="449.65999999999997" width="40" height="40" as="geometry" />
        </mxCell>
        <mxCell id="iwDeJrG9YnzXXPkuRzG3-56" value="" style="whiteSpace=wrap;html=1;aspect=fixed;fontSize=17;fontFamily=Verdana;fontStyle=1;fontColor=#AFB9C7;fillColor=#383E47;rounded=1;strokeColor=#1E1F20;" parent="1" vertex="1">
          <mxGeometry x="178.75" y="489.65999999999997" width="40" height="40" as="geometry" />
        </mxCell>
        <mxCell id="iwDeJrG9YnzXXPkuRzG3-57" value="" style="whiteSpace=wrap;html=1;aspect=fixed;fontSize=17;fontFamily=Verdana;fontStyle=1;fontColor=#AFB9C7;fillColor=#383E47;rounded=1;strokeColor=#1E1F20;" parent="1" vertex="1">
          <mxGeometry x="538.75" y="489.65999999999997" width="40" height="40" as="geometry" />
        </mxCell>
        <mxCell id="iwDeJrG9YnzXXPkuRzG3-58" value="" style="whiteSpace=wrap;html=1;aspect=fixed;fontSize=17;fontFamily=Verdana;fontStyle=1;fontColor=#AFB9C7;fillColor=#383E47;rounded=1;strokeColor=#1E1F20;" parent="1" vertex="1">
          <mxGeometry x="578.75" y="489.65999999999997" width="40" height="40" as="geometry" />
        </mxCell>
        <mxCell id="iwDeJrG9YnzXXPkuRzG3-62" value="" style="whiteSpace=wrap;html=1;aspect=fixed;fontSize=17;fontFamily=Verdana;fontStyle=1;fontColor=#AFB9C7;fillColor=#383E47;rounded=1;strokeColor=#1E1F20;" parent="1" vertex="1">
          <mxGeometry x="618.75" y="489.65999999999997" width="40" height="40" as="geometry" />
        </mxCell>
        <mxCell id="iwDeJrG9YnzXXPkuRzG3-63" value="&lt;p style=&quot;line-height: 90%; font-size: 16px;&quot;&gt;`&lt;br style=&quot;font-size: 16px;&quot;&gt;´&lt;/p&gt;" style="whiteSpace=wrap;html=1;aspect=fixed;fontSize=16;fontFamily=Verdana;fontStyle=1;fontColor=#AFB9C7;fillColor=#383E47;rounded=1;spacingBottom=-7;strokeColor=#1E1F20;" parent="1" vertex="1">
          <mxGeometry x="618.75" y="409.65999999999997" width="40" height="40" as="geometry" />
        </mxCell>
        <mxCell id="iwDeJrG9YnzXXPkuRzG3-65" value="&lt;p style=&quot;line-height: 50%;&quot;&gt;&lt;font style=&quot;font-size: 9px;&quot;&gt;RAlt(&lt;/font&gt;&lt;font style=&quot;font-size: 12px;&quot;&gt;spc&lt;/font&gt;&lt;span style=&quot;font-size: 9px;&quot;&gt;)&lt;/span&gt;&lt;br style=&quot;font-size: 9px;&quot;&gt;&lt;/p&gt;&lt;p style=&quot;font-size: 9px;&quot;&gt;&lt;/p&gt;" style="whiteSpace=wrap;html=1;rotation=0;fontSize=9;fontFamily=Verdana;fontStyle=1;fontColor=#AFB9C7;fillColor=#383E47;rounded=1;strokeColor=#1E1F20;" parent="1" vertex="1">
          <mxGeometry x="378.75" y="489.65999999999997" width="80" height="40" as="geometry" />
        </mxCell>
        <mxCell id="iwDeJrG9YnzXXPkuRzG3-83" value="" style="html=1;verticalLabelPosition=bottom;align=center;labelBackgroundColor=#ffffff;verticalAlign=top;strokeWidth=2;strokeColor=#AFB9C7;shadow=0;dashed=0;shape=mxgraph.ios7.icons.document;rounded=1;glass=0;sketch=0;fillStyle=solid;fontSize=5;fontColor=#A63AC7;fillColor=none;" parent="1" vertex="1">
          <mxGeometry x="393.8" y="462.15999999999997" width="10.15" height="14.5" as="geometry" />
        </mxCell>
        <mxCell id="iwDeJrG9YnzXXPkuRzG3-84" value="" style="html=1;verticalLabelPosition=bottom;align=center;labelBackgroundColor=#ffffff;verticalAlign=top;strokeWidth=2;strokeColor=#AFB9C7;shadow=0;dashed=0;shape=mxgraph.ios7.icons.documents;rounded=1;glass=0;sketch=0;fillStyle=solid;fontSize=5;fontColor=#A63AC7;fillColor=none;" parent="1" vertex="1">
          <mxGeometry x="313.25" y="461.98999999999995" width="11" height="14.67" as="geometry" />
        </mxCell>
        <mxCell id="qOO70KsoDbuKheBEqoZG-69" value="" style="whiteSpace=wrap;html=1;aspect=fixed;rotation=0;fontSize=17;fontFamily=Verdana;fontStyle=1;fontColor=#333333;fillColor=#8D9A9E;strokeColor=#666666;shadow=0;sketch=0;rounded=1;glass=0;dashed=1;fillStyle=auto;" parent="1" vertex="1">
          <mxGeometry x="298.75" y="489.65999999999997" width="40" height="40" as="geometry" />
        </mxCell>
        <mxCell id="iwDeJrG9YnzXXPkuRzG3-105" value="⌦" style="whiteSpace=wrap;html=1;aspect=fixed;fontSize=17;fontFamily=Verdana;fontStyle=1;fontColor=#AFB9C7;fillColor=#383E47;rounded=1;strokeColor=#1E1F20;" parent="1" vertex="1">
          <mxGeometry x="458.75" y="369.65999999999997" width="40" height="40" as="geometry" />
        </mxCell>
        <mxCell id="qOO70KsoDbuKheBEqoZG-152" value="" style="endArrow=classic;html=1;fontFamily=Verdana;fontSize=13;fontColor=#FF8000;rounded=1;strokeColor=#FF8000;entryX=-0.02;entryY=0.178;entryDx=0;entryDy=0;entryPerimeter=0;exitX=-0.008;exitY=0.506;exitDx=0;exitDy=0;exitPerimeter=0;" parent="1" source="qOO70KsoDbuKheBEqoZG-151" target="iwDeJrG9YnzXXPkuRzG3-112" edge="1">
          <mxGeometry width="50" height="50" relative="1" as="geometry">
            <mxPoint x="169.25" y="570" as="sourcePoint" />
            <mxPoint x="175.75" y="408" as="targetPoint" />
            <Array as="points">
              <mxPoint x="149.25" y="570" />
              <mxPoint x="149.25" y="480" />
              <mxPoint x="149.25" y="417" />
            </Array>
          </mxGeometry>
        </mxCell>
        <mxCell id="iwDeJrG9YnzXXPkuRzG3-123" value="" style="edgeStyle=orthogonalEdgeStyle;rounded=1;orthogonalLoop=1;jettySize=auto;html=1;fontSize=14;fontColor=#9933FF;entryX=0.5;entryY=1;entryDx=0;entryDy=0;fontFamily=Verdana;strokeColor=#CC99FF;fillColor=#1ba1e2;" parent="1" source="iwDeJrG9YnzXXPkuRzG3-122" edge="1">
          <mxGeometry relative="1" as="geometry">
            <mxPoint x="359.25" y="251" as="targetPoint" />
            <Array as="points">
              <mxPoint x="359.25" y="270" />
            </Array>
          </mxGeometry>
        </mxCell>
        <mxCell id="iwDeJrG9YnzXXPkuRzG3-122" value="&lt;font style=&quot;font-size: 10px;&quot;&gt;One Shot&lt;/font&gt;&lt;br&gt;&lt;font size=&quot;1&quot; style=&quot;&quot;&gt;&lt;b style=&quot;font-size: 13px;&quot;&gt;Shift&lt;/b&gt;&lt;/font&gt;" style="text;html=1;align=center;verticalAlign=middle;whiteSpace=wrap;rounded=0;shadow=0;glass=0;sketch=0;fontFamily=Verdana;fontSize=14;fillColor=none;fontColor=#CC99FF;" parent="1" vertex="1">
          <mxGeometry x="79.25" y="211" width="79.5" height="49" as="geometry" />
        </mxCell>
        <mxCell id="iwDeJrG9YnzXXPkuRzG3-127" value="&lt;p style=&quot;line-height: 90%; font-size: 12px;&quot;&gt;^&lt;br style=&quot;font-size: 12px;&quot;&gt;~&lt;/p&gt;" style="whiteSpace=wrap;html=1;aspect=fixed;fontSize=12;fontFamily=Verdana;fontStyle=1;fontColor=#AFB9C7;fillColor=#383E47;rounded=1;spacingTop=-2;strokeColor=#1E1F20;" parent="1" vertex="1">
          <mxGeometry x="618.75" y="369.83" width="40" height="40" as="geometry" />
        </mxCell>
        <mxCell id="iwDeJrG9YnzXXPkuRzG3-132" value="⭾" style="whiteSpace=wrap;html=1;aspect=fixed;fontSize=19;fontFamily=Verdana;fontStyle=1;fontColor=#AFB9C7;fillColor=#383E47;rounded=1;strokeColor=#1E1F20;" parent="1" vertex="1">
          <mxGeometry x="338.75" y="449.83" width="40" height="40" as="geometry" />
        </mxCell>
        <mxCell id="gDNsKO5x_6u3mnAIkDh--15" value="&lt;span style=&quot;font-family: &amp;quot;segoe ui emoji&amp;quot;, &amp;quot;apple color emoji&amp;quot;, &amp;quot;noto color emoji&amp;quot;; font-size: 25px;&quot;&gt;←&lt;/span&gt;" style="whiteSpace=wrap;html=1;aspect=fixed;fontSize=25;fontFamily=Verdana;fontStyle=1;fontColor=#AFB9C7;fillColor=#383E47;rounded=1;spacingTop=-4;strokeColor=#1E1F20;" parent="1" vertex="1">
          <mxGeometry x="458.75" y="409.31999999999994" width="40" height="40" as="geometry" />
        </mxCell>
        <mxCell id="gDNsKO5x_6u3mnAIkDh--16" value="&lt;span style=&quot;font-family: &amp;quot;segoe ui emoji&amp;quot;, &amp;quot;apple color emoji&amp;quot;, &amp;quot;noto color emoji&amp;quot;; font-size: 25px;&quot;&gt;↑&lt;/span&gt;" style="whiteSpace=wrap;html=1;aspect=fixed;fontSize=25;fontFamily=Verdana;fontStyle=1;fontColor=#AFB9C7;fillColor=#383E47;rounded=1;spacingTop=-4;strokeColor=#1E1F20;" parent="1" vertex="1">
          <mxGeometry x="498.75" y="369.31999999999994" width="40" height="40" as="geometry" />
        </mxCell>
        <mxCell id="gDNsKO5x_6u3mnAIkDh--17" value="&lt;span style=&quot;font-family: &amp;quot;segoe ui emoji&amp;quot;, &amp;quot;apple color emoji&amp;quot;, &amp;quot;noto color emoji&amp;quot;; font-size: 25px;&quot;&gt;↓&lt;/span&gt;" style="whiteSpace=wrap;html=1;aspect=fixed;fontSize=25;fontFamily=Verdana;fontStyle=1;fontColor=#AFB9C7;fillColor=#383E47;rounded=1;spacingTop=-4;strokeColor=#1E1F20;" parent="1" vertex="1">
          <mxGeometry x="498.75" y="409.31999999999994" width="40" height="40" as="geometry" />
        </mxCell>
        <mxCell id="gDNsKO5x_6u3mnAIkDh--18" value="&lt;span style=&quot;font-family: &amp;quot;segoe ui emoji&amp;quot;, &amp;quot;apple color emoji&amp;quot;, &amp;quot;noto color emoji&amp;quot;; font-size: 25px;&quot;&gt;→&lt;/span&gt;" style="whiteSpace=wrap;html=1;aspect=fixed;fontSize=25;fontFamily=Verdana;fontStyle=1;fontColor=#AFB9C7;fillColor=#383E47;rounded=1;spacingTop=-4;strokeColor=#1E1F20;" parent="1" vertex="1">
          <mxGeometry x="538.75" y="409.31999999999994" width="40" height="40" as="geometry" />
        </mxCell>
        <mxCell id="gDNsKO5x_6u3mnAIkDh--19" value="&lt;span style=&quot;font-family: &amp;quot;segoe ui emoji&amp;quot;, &amp;quot;apple color emoji&amp;quot;, &amp;quot;noto color emoji&amp;quot;; font-size: 28px;&quot;&gt;→&lt;/span&gt;" style="whiteSpace=wrap;html=1;aspect=fixed;fontSize=28;fontFamily=Verdana;fontStyle=1;fontColor=#AFB9C7;fillColor=#383E47;rounded=1;spacingTop=-4;strokeColor=#1E1F20;" parent="1" vertex="1">
          <mxGeometry x="619.25" y="211" width="40" height="40" as="geometry" />
        </mxCell>
        <mxCell id="gDNsKO5x_6u3mnAIkDh--20" value="&lt;span style=&quot;font-family: &amp;quot;segoe ui emoji&amp;quot;, &amp;quot;apple color emoji&amp;quot;, &amp;quot;noto color emoji&amp;quot;; font-size: 28px;&quot;&gt;←&lt;/span&gt;" style="whiteSpace=wrap;html=1;aspect=fixed;fontSize=28;fontFamily=Verdana;fontStyle=1;fontColor=#AFB9C7;fillColor=#383E47;rounded=1;spacingTop=-4;strokeColor=#1E1F20;" parent="1" vertex="1">
          <mxGeometry x="579.25" y="211" width="40" height="40" as="geometry" />
        </mxCell>
        <mxCell id="iwDeJrG9YnzXXPkuRzG3-111" value="&lt;font face=&quot;segoe ui emoji, apple color emoji, noto color emoji&quot; style=&quot;font-size: 27px;&quot;&gt;⎇&lt;/font&gt;" style="whiteSpace=wrap;html=1;aspect=fixed;fontSize=27;fontFamily=Verdana;fontStyle=1;fillColor=#563F24;strokeColor=#1E1F20;fontColor=#C9B6A1;rounded=1;spacingTop=-9;" parent="1" vertex="1">
          <mxGeometry x="258.75" y="409.48999999999995" width="40" height="40" as="geometry" />
        </mxCell>
        <mxCell id="iwDeJrG9YnzXXPkuRzG3-112" value="&lt;span style=&quot;font-family: &amp;quot;segoe ui emoji&amp;quot;, &amp;quot;apple color emoji&amp;quot;, &amp;quot;noto color emoji&amp;quot;; font-size: 22px;&quot;&gt;❖&lt;/span&gt;" style="whiteSpace=wrap;html=1;aspect=fixed;fontSize=22;fontFamily=Verdana;fontStyle=1;fillColor=#563F24;strokeColor=#1E1F20;fontColor=#C9B6A1;rounded=1;" parent="1" vertex="1">
          <mxGeometry x="218.75" y="409.4899999999999" width="40" height="40" as="geometry" />
        </mxCell>
        <mxCell id="iwDeJrG9YnzXXPkuRzG3-113" value="&lt;span style=&quot;font-family: &amp;quot;segoe ui emoji&amp;quot;, &amp;quot;apple color emoji&amp;quot;, &amp;quot;noto color emoji&amp;quot;; font-size: 22px;&quot;&gt;⇧&lt;/span&gt;" style="whiteSpace=wrap;html=1;aspect=fixed;fontSize=22;fontFamily=Verdana;fontStyle=1;fillColor=#563F24;strokeColor=#1E1F20;fontColor=#C9B6A1;rounded=1;" parent="1" vertex="1">
          <mxGeometry x="298.75" y="409.8299999999999" width="40" height="40" as="geometry" />
        </mxCell>
        <mxCell id="iwDeJrG9YnzXXPkuRzG3-114" value="&lt;span style=&quot;font-family: &amp;quot;segoe ui emoji&amp;quot;, &amp;quot;apple color emoji&amp;quot;, &amp;quot;noto color emoji&amp;quot;; font-size: 21px;&quot;&gt;✲&lt;/span&gt;" style="whiteSpace=wrap;html=1;aspect=fixed;fontSize=21;fontFamily=Verdana;fontStyle=1;fillColor=#4B3E30;strokeColor=#281C01;fontColor=#C2B6A8;rounded=1;spacingTop=-3;" parent="1" vertex="1">
          <mxGeometry x="338.75" y="409.8299999999999" width="40" height="40" as="geometry" />
        </mxCell>
        <mxCell id="iwDeJrG9YnzXXPkuRzG3-115" value="RAlt" style="whiteSpace=wrap;html=1;aspect=fixed;fontSize=11;fontFamily=Verdana;fontStyle=1;fillColor=#4B3E30;strokeColor=#281C01;fontColor=#C2B6A8;rounded=1;spacingBottom=0;" parent="1" vertex="1">
          <mxGeometry x="378.75" y="409.8299999999999" width="40" height="40" as="geometry" />
        </mxCell>
        <mxCell id="gDNsKO5x_6u3mnAIkDh--46" value="" style="whiteSpace=wrap;html=1;aspect=fixed;fontSize=17;fontFamily=Verdana;fontStyle=1;fontColor=#AFB9C7;fillColor=#383E47;rounded=1;strokeColor=#1E1F20;" parent="1" vertex="1">
          <mxGeometry x="219.25" y="800.3399999999999" width="40" height="40" as="geometry" />
        </mxCell>
        <mxCell id="gDNsKO5x_6u3mnAIkDh--51" value="" style="whiteSpace=wrap;html=1;aspect=fixed;fontSize=17;fontFamily=Verdana;fontStyle=1;fontColor=#AFB9C7;fillColor=#383E47;rounded=1;strokeColor=#1E1F20;" parent="1" vertex="1">
          <mxGeometry x="179.25" y="800.3399999999999" width="40" height="40" as="geometry" />
        </mxCell>
        <mxCell id="gDNsKO5x_6u3mnAIkDh--52" value="" style="whiteSpace=wrap;html=1;aspect=fixed;fontSize=17;fontFamily=Verdana;fontStyle=1;fontColor=#AFB9C7;fillColor=#383E47;rounded=1;strokeColor=#1E1F20;" parent="1" vertex="1">
          <mxGeometry x="539.25" y="800.3399999999999" width="40" height="40" as="geometry" />
        </mxCell>
        <mxCell id="gDNsKO5x_6u3mnAIkDh--53" value="" style="whiteSpace=wrap;html=1;aspect=fixed;fontSize=17;fontFamily=Verdana;fontStyle=1;fontColor=#AFB9C7;fillColor=#383E47;rounded=1;strokeColor=#1E1F20;" parent="1" vertex="1">
          <mxGeometry x="579.25" y="800.3399999999999" width="40" height="40" as="geometry" />
        </mxCell>
        <mxCell id="gDNsKO5x_6u3mnAIkDh--55" value="" style="whiteSpace=wrap;html=1;aspect=fixed;fontSize=17;fontFamily=Verdana;fontStyle=1;fontColor=#AFB9C7;fillColor=#383E47;rounded=1;strokeColor=#1E1F20;" parent="1" vertex="1">
          <mxGeometry x="619.25" y="800.3399999999999" width="40" height="40" as="geometry" />
        </mxCell>
        <mxCell id="gDNsKO5x_6u3mnAIkDh--77" value="&lt;span style=&quot;font-family: &amp;quot;segoe ui emoji&amp;quot;, &amp;quot;apple color emoji&amp;quot;, &amp;quot;noto color emoji&amp;quot;; font-size: 20px;&quot;&gt;❖&lt;/span&gt;" style="whiteSpace=wrap;html=1;aspect=fixed;fontSize=20;fontFamily=Verdana;fontStyle=1;fillColor=#4B3E30;strokeColor=#281C01;fontColor=#C2B6A8;rounded=1;spacingTop=-2;" parent="1" vertex="1">
          <mxGeometry x="219.25" y="409.4899999999999" width="40" height="40" as="geometry" />
        </mxCell>
        <mxCell id="gDNsKO5x_6u3mnAIkDh--78" value="&lt;font face=&quot;segoe ui emoji, apple color emoji, noto color emoji&quot; style=&quot;font-size: 27px;&quot;&gt;⎇&lt;/font&gt;" style="whiteSpace=wrap;html=1;aspect=fixed;fontSize=27;fontFamily=Verdana;fontStyle=1;fillColor=#4B3E30;strokeColor=#281C01;fontColor=#C2B6A8;rounded=1;spacingTop=-10;" parent="1" vertex="1">
          <mxGeometry x="259.25" y="409.48999999999995" width="40" height="40" as="geometry" />
        </mxCell>
        <mxCell id="gDNsKO5x_6u3mnAIkDh--79" value="&lt;span style=&quot;font-family: &amp;quot;segoe ui emoji&amp;quot;, &amp;quot;apple color emoji&amp;quot;, &amp;quot;noto color emoji&amp;quot;; font-size: 22px;&quot;&gt;⇧&lt;/span&gt;" style="whiteSpace=wrap;html=1;aspect=fixed;fontSize=22;fontFamily=Verdana;fontStyle=1;fillColor=#4B3E30;strokeColor=#281C01;fontColor=#C2B6A8;rounded=1;spacingTop=-3;" parent="1" vertex="1">
          <mxGeometry x="299.25" y="409.8299999999999" width="40" height="40" as="geometry" />
        </mxCell>
        <mxCell id="gDNsKO5x_6u3mnAIkDh--87" value="#" style="whiteSpace=wrap;html=1;aspect=fixed;fontSize=17;fontFamily=Verdana;fontStyle=1;fontColor=#AFB9C7;fillColor=#383E47;rounded=1;strokeColor=#1E1F20;" parent="1" vertex="1">
          <mxGeometry x="219.25" y="680.34" width="40" height="40" as="geometry" />
        </mxCell>
        <mxCell id="gDNsKO5x_6u3mnAIkDh--88" value="&amp;lt;" style="whiteSpace=wrap;html=1;aspect=fixed;fontSize=17;fontFamily=Verdana;fontStyle=1;fontColor=#AFB9C7;fillColor=#383E47;rounded=1;strokeColor=#1E1F20;" parent="1" vertex="1">
          <mxGeometry x="259.25" y="680.34" width="40" height="40" as="geometry" />
        </mxCell>
        <mxCell id="gDNsKO5x_6u3mnAIkDh--89" value="&amp;gt;" style="whiteSpace=wrap;html=1;aspect=fixed;fontSize=17;fontFamily=Verdana;fontStyle=1;fontColor=#AFB9C7;fillColor=#383E47;rounded=1;strokeColor=#1E1F20;" parent="1" vertex="1">
          <mxGeometry x="299.25" y="680.34" width="40" height="40" as="geometry" />
        </mxCell>
        <mxCell id="gDNsKO5x_6u3mnAIkDh--90" value="|" style="whiteSpace=wrap;html=1;aspect=fixed;fontSize=17;fontFamily=Verdana;fontStyle=1;fontColor=#AFB9C7;fillColor=#383E47;rounded=1;strokeColor=#1E1F20;" parent="1" vertex="1">
          <mxGeometry x="339.25" y="680.34" width="40" height="40" as="geometry" />
        </mxCell>
        <mxCell id="gDNsKO5x_6u3mnAIkDh--91" value="" style="whiteSpace=wrap;html=1;aspect=fixed;fontSize=17;fontFamily=Verdana;fontStyle=1;fontColor=#AFB9C7;fillColor=#383E47;rounded=1;strokeColor=#1E1F20;" parent="1" vertex="1">
          <mxGeometry x="379.25" y="680.34" width="40" height="40" as="geometry" />
        </mxCell>
        <mxCell id="gDNsKO5x_6u3mnAIkDh--92" value="[" style="whiteSpace=wrap;html=1;aspect=fixed;fontSize=17;fontFamily=Verdana;fontStyle=1;fontColor=#AFB9C7;fillColor=#383E47;rounded=1;strokeColor=#1E1F20;" parent="1" vertex="1">
          <mxGeometry x="219.25" y="720.34" width="40" height="40" as="geometry" />
        </mxCell>
        <mxCell id="gDNsKO5x_6u3mnAIkDh--93" value="(" style="whiteSpace=wrap;html=1;aspect=fixed;fontSize=17;fontFamily=Verdana;fontStyle=1;fontColor=#AFB9C7;fillColor=#383E47;rounded=1;strokeColor=#1E1F20;" parent="1" vertex="1">
          <mxGeometry x="259.25" y="720.34" width="40" height="40" as="geometry" />
        </mxCell>
        <mxCell id="gDNsKO5x_6u3mnAIkDh--94" value=")" style="whiteSpace=wrap;html=1;aspect=fixed;fontSize=17;fontFamily=Verdana;fontStyle=1;fontColor=#AFB9C7;fillColor=#383E47;rounded=1;strokeColor=#1E1F20;" parent="1" vertex="1">
          <mxGeometry x="299.25" y="720.34" width="40" height="40" as="geometry" />
        </mxCell>
        <mxCell id="gDNsKO5x_6u3mnAIkDh--95" value="{" style="whiteSpace=wrap;html=1;aspect=fixed;fontSize=17;fontFamily=Verdana;fontStyle=1;fontColor=#AFB9C7;fillColor=#383E47;rounded=1;strokeColor=#1E1F20;" parent="1" vertex="1">
          <mxGeometry x="339.25" y="720.34" width="40" height="40" as="geometry" />
        </mxCell>
        <mxCell id="gDNsKO5x_6u3mnAIkDh--96" value="&amp;amp;" style="whiteSpace=wrap;html=1;aspect=fixed;fontSize=17;fontFamily=Verdana;fontStyle=1;fontColor=#AFB9C7;fillColor=#383E47;rounded=1;strokeColor=#1E1F20;" parent="1" vertex="1">
          <mxGeometry x="379.25" y="720.34" width="40" height="40" as="geometry" />
        </mxCell>
        <mxCell id="gDNsKO5x_6u3mnAIkDh--97" value="" style="whiteSpace=wrap;html=1;aspect=fixed;fontSize=17;fontFamily=Verdana;fontStyle=1;fontColor=#AFB9C7;fillColor=#383E47;rounded=1;strokeColor=#1E1F20;" parent="1" vertex="1">
          <mxGeometry x="219.25" y="760.34" width="40" height="40" as="geometry" />
        </mxCell>
        <mxCell id="gDNsKO5x_6u3mnAIkDh--98" value=";" style="whiteSpace=wrap;html=1;aspect=fixed;fontSize=17;fontFamily=Verdana;fontStyle=1;fontColor=#AFB9C7;fillColor=#383E47;rounded=1;strokeColor=#1E1F20;" parent="1" vertex="1">
          <mxGeometry x="259.25" y="760.34" width="40" height="40" as="geometry" />
        </mxCell>
        <mxCell id="gDNsKO5x_6u3mnAIkDh--99" value="\" style="whiteSpace=wrap;html=1;aspect=fixed;fontSize=17;fontFamily=Verdana;fontStyle=1;fontColor=#AFB9C7;fillColor=#383E47;rounded=1;strokeColor=#1E1F20;" parent="1" vertex="1">
          <mxGeometry x="299.25" y="760.34" width="40" height="40" as="geometry" />
        </mxCell>
        <mxCell id="gDNsKO5x_6u3mnAIkDh--100" value="*" style="whiteSpace=wrap;html=1;aspect=fixed;fontSize=17;fontFamily=Verdana;fontStyle=1;fontColor=#AFB9C7;fillColor=#383E47;rounded=1;strokeColor=#1E1F20;" parent="1" vertex="1">
          <mxGeometry x="339.25" y="760.34" width="40" height="40" as="geometry" />
        </mxCell>
        <mxCell id="gDNsKO5x_6u3mnAIkDh--101" value="!" style="whiteSpace=wrap;html=1;aspect=fixed;fontSize=17;fontFamily=Verdana;fontStyle=1;fontColor=#AFB9C7;fillColor=#383E47;rounded=1;strokeColor=#1E1F20;" parent="1" vertex="1">
          <mxGeometry x="379.25" y="760.34" width="40" height="40" as="geometry" />
        </mxCell>
        <mxCell id="gDNsKO5x_6u3mnAIkDh--102" value="" style="whiteSpace=wrap;html=1;aspect=fixed;fontSize=17;fontFamily=Verdana;fontStyle=1;fontColor=#AFB9C7;fillColor=#383E47;rounded=1;strokeColor=#1E1F20;" parent="1" vertex="1">
          <mxGeometry x="419.25" y="680.34" width="40" height="40" as="geometry" />
        </mxCell>
        <mxCell id="gDNsKO5x_6u3mnAIkDh--103" value="" style="whiteSpace=wrap;html=1;aspect=fixed;fontSize=17;fontFamily=Verdana;fontStyle=1;fontColor=#AFB9C7;fillColor=#383E47;rounded=1;strokeColor=#1E1F20;" parent="1" vertex="1">
          <mxGeometry x="459.25" y="680.34" width="40" height="40" as="geometry" />
        </mxCell>
        <mxCell id="gDNsKO5x_6u3mnAIkDh--104" value="/" style="whiteSpace=wrap;html=1;aspect=fixed;fontSize=17;fontFamily=Verdana;fontStyle=1;fontColor=#AFB9C7;fillColor=#383E47;rounded=1;strokeColor=#1E1F20;" parent="1" vertex="1">
          <mxGeometry x="499.25" y="680.34" width="40" height="40" as="geometry" />
        </mxCell>
        <mxCell id="gDNsKO5x_6u3mnAIkDh--105" value="}" style="whiteSpace=wrap;html=1;aspect=fixed;fontSize=17;fontFamily=Verdana;fontStyle=1;fontColor=#AFB9C7;fillColor=#383E47;rounded=1;strokeColor=#1E1F20;" parent="1" vertex="1">
          <mxGeometry x="539.25" y="680.34" width="40" height="40" as="geometry" />
        </mxCell>
        <mxCell id="gDNsKO5x_6u3mnAIkDh--106" value="]" style="whiteSpace=wrap;html=1;aspect=fixed;fontSize=17;fontFamily=Verdana;fontStyle=1;fontColor=#AFB9C7;fillColor=#383E47;rounded=1;strokeColor=#1E1F20;" parent="1" vertex="1">
          <mxGeometry x="579.25" y="680.34" width="40" height="40" as="geometry" />
        </mxCell>
        <mxCell id="gDNsKO5x_6u3mnAIkDh--107" value="%" style="whiteSpace=wrap;html=1;aspect=fixed;fontSize=17;fontFamily=Verdana;fontStyle=1;fontColor=#AFB9C7;fillColor=#383E47;rounded=1;strokeColor=#1E1F20;" parent="1" vertex="1">
          <mxGeometry x="419.25" y="720.34" width="40" height="40" as="geometry" />
        </mxCell>
        <mxCell id="gDNsKO5x_6u3mnAIkDh--108" value="-" style="whiteSpace=wrap;html=1;aspect=fixed;fontSize=17;fontFamily=Verdana;fontStyle=1;fontColor=#AFB9C7;fillColor=#383E47;rounded=1;strokeColor=#1E1F20;" parent="1" vertex="1">
          <mxGeometry x="459.25" y="720.34" width="40" height="40" as="geometry" />
        </mxCell>
        <mxCell id="gDNsKO5x_6u3mnAIkDh--109" value="=" style="whiteSpace=wrap;html=1;aspect=fixed;fontSize=17;fontFamily=Verdana;fontStyle=1;fontColor=#AFB9C7;fillColor=#383E47;rounded=1;strokeColor=#1E1F20;" parent="1" vertex="1">
          <mxGeometry x="499.25" y="720.34" width="40" height="40" as="geometry" />
        </mxCell>
        <mxCell id="gDNsKO5x_6u3mnAIkDh--110" value="+" style="whiteSpace=wrap;html=1;aspect=fixed;fontSize=17;fontFamily=Verdana;fontStyle=1;fontColor=#AFB9C7;fillColor=#383E47;rounded=1;strokeColor=#1E1F20;" parent="1" vertex="1">
          <mxGeometry x="539.25" y="720.34" width="40" height="40" as="geometry" />
        </mxCell>
        <mxCell id="gDNsKO5x_6u3mnAIkDh--111" value=":" style="whiteSpace=wrap;html=1;aspect=fixed;fontSize=17;fontFamily=Verdana;fontStyle=1;fontColor=#AFB9C7;fillColor=#383E47;rounded=1;strokeColor=#1E1F20;" parent="1" vertex="1">
          <mxGeometry x="579.25" y="720.34" width="40" height="40" as="geometry" />
        </mxCell>
        <mxCell id="gDNsKO5x_6u3mnAIkDh--112" value="$" style="whiteSpace=wrap;html=1;aspect=fixed;fontSize=17;fontFamily=Verdana;fontStyle=1;fontColor=#AFB9C7;fillColor=#383E47;rounded=1;strokeColor=#1E1F20;" parent="1" vertex="1">
          <mxGeometry x="419.25" y="760.34" width="40" height="40" as="geometry" />
        </mxCell>
        <mxCell id="gDNsKO5x_6u3mnAIkDh--113" value="&quot;" style="whiteSpace=wrap;html=1;aspect=fixed;fontSize=17;fontFamily=Verdana;fontStyle=1;fontColor=#AFB9C7;fillColor=#383E47;rounded=1;strokeColor=#1E1F20;" parent="1" vertex="1">
          <mxGeometry x="459.25" y="760.34" width="40" height="40" as="geometry" />
        </mxCell>
        <mxCell id="gDNsKO5x_6u3mnAIkDh--114" value="_" style="whiteSpace=wrap;html=1;aspect=fixed;fontSize=17;fontFamily=Verdana;fontStyle=1;fontColor=#AFB9C7;fillColor=#383E47;rounded=1;strokeColor=#1E1F20;" parent="1" vertex="1">
          <mxGeometry x="499.25" y="760.34" width="40" height="40" as="geometry" />
        </mxCell>
        <mxCell id="gDNsKO5x_6u3mnAIkDh--115" value="&#39;" style="whiteSpace=wrap;html=1;aspect=fixed;fontSize=17;fontFamily=Verdana;fontStyle=1;fontColor=#AFB9C7;fillColor=#383E47;rounded=1;strokeColor=#1E1F20;" parent="1" vertex="1">
          <mxGeometry x="539.25" y="760.34" width="40" height="40" as="geometry" />
        </mxCell>
        <mxCell id="gDNsKO5x_6u3mnAIkDh--116" value="" style="whiteSpace=wrap;html=1;aspect=fixed;fontSize=17;fontFamily=Verdana;fontStyle=1;fontColor=#AFB9C7;fillColor=#383E47;rounded=1;strokeColor=#1E1F20;" parent="1" vertex="1">
          <mxGeometry x="579.25" y="760.34" width="40" height="40" as="geometry" />
        </mxCell>
        <mxCell id="gDNsKO5x_6u3mnAIkDh--117" value="⎋" style="whiteSpace=wrap;html=1;aspect=fixed;fontSize=30;fontFamily=Verdana;fontStyle=1;fontColor=#AFB9C7;fillColor=#383E47;rounded=1;spacingTop=-12;strokeColor=#1E1F20;" parent="1" vertex="1">
          <mxGeometry x="179.25" y="680.34" width="40" height="40" as="geometry" />
        </mxCell>
        <mxCell id="gDNsKO5x_6u3mnAIkDh--118" value="⌫" style="whiteSpace=wrap;html=1;aspect=fixed;fontSize=17;fontFamily=Verdana;fontStyle=1;fontColor=#AFB9C7;fillColor=#383E47;rounded=1;spacingLeft=-2;strokeColor=#1E1F20;" parent="1" vertex="1">
          <mxGeometry x="179.25" y="720.34" width="40" height="40" as="geometry" />
        </mxCell>
        <mxCell id="gDNsKO5x_6u3mnAIkDh--119" value="" style="whiteSpace=wrap;html=1;aspect=fixed;fontSize=17;fontFamily=Verdana;fontStyle=1;fontColor=#AFB9C7;fillColor=#383E47;rounded=1;strokeColor=#1E1F20;" parent="1" vertex="1">
          <mxGeometry x="179.25" y="760.34" width="40" height="40" as="geometry" />
        </mxCell>
        <mxCell id="gDNsKO5x_6u3mnAIkDh--120" value="&lt;p style=&quot;line-height: 90%; font-size: 12px;&quot;&gt;&lt;br&gt;&lt;/p&gt;" style="whiteSpace=wrap;html=1;aspect=fixed;fontSize=12;fontFamily=Verdana;fontStyle=1;fontColor=#AFB9C7;fillColor=#383E47;rounded=1;spacingTop=-2;strokeColor=#1E1F20;" parent="1" vertex="1">
          <mxGeometry x="619.25" y="680.34" width="40" height="40" as="geometry" />
        </mxCell>
        <mxCell id="gDNsKO5x_6u3mnAIkDh--123" value="@" style="whiteSpace=wrap;html=1;aspect=fixed;fontSize=17;fontFamily=Verdana;fontStyle=1;fontColor=#AFB9C7;fillColor=#383E47;rounded=1;strokeColor=#1E1F20;" parent="1" vertex="1">
          <mxGeometry x="618.75" y="720.34" width="40" height="40" as="geometry" />
        </mxCell>
        <mxCell id="gDNsKO5x_6u3mnAIkDh--124" value="&lt;p style=&quot;line-height: 0%;&quot;&gt;&lt;font style=&quot;font-size: 8px;&quot;&gt;OSM&lt;/font&gt;&lt;/p&gt;&lt;p style=&quot;line-height: 30%;&quot;&gt;&lt;font style=&quot;font-size: 11px;&quot;&gt;RAlt&lt;/font&gt;&lt;/p&gt;&lt;p style=&quot;font-size: 10px;&quot;&gt;&lt;/p&gt;" style="whiteSpace=wrap;html=1;rotation=0;fontSize=10;fontFamily=Verdana;fontStyle=1;fontColor=#C2B6A8;fillColor=#4B3E30;rounded=1;spacingTop=-1;strokeColor=#281C01;" parent="1" vertex="1">
          <mxGeometry x="378.75" y="800.51" width="80" height="40" as="geometry" />
        </mxCell>
        <mxCell id="q-oMBy3fRmky4EhN0mfx-3" value="[" style="whiteSpace=wrap;html=1;aspect=fixed;rotation=0;fontSize=20;fontFamily=Verdana;fontStyle=0;fontColor=#AFB9C7;fillColor=#383E47;rounded=1;strokeColor=#1E1F20;horizontal=0;spacingLeft=-12;spacingTop=-6;" parent="1" vertex="1">
          <mxGeometry x="339.25" y="800.3400000000001" width="40" height="40" as="geometry" />
        </mxCell>
        <mxCell id="q-oMBy3fRmky4EhN0mfx-4" value="[" style="whiteSpace=wrap;html=1;aspect=fixed;rotation=0;fontSize=20;fontFamily=Verdana;fontStyle=0;fontColor=#AFB9C7;fillColor=#383E47;rounded=1;strokeColor=#1E1F20;horizontal=0;spacingLeft=-12;spacingTop=-6;" parent="1" vertex="1">
          <mxGeometry x="459.25" y="489.8300000000002" width="40" height="40" as="geometry" />
        </mxCell>
        <mxCell id="iwDeJrG9YnzXXPkuRzG3-107" value="&lt;font color=&quot;#5c5100&quot;&gt;Fnc&lt;/font&gt;" style="whiteSpace=wrap;html=1;aspect=fixed;rotation=0;fontSize=13;fontFamily=Verdana;fontStyle=1;fillColor=#F6DC1E;strokeColor=#B09500;fontColor=#000000;rounded=1;fillStyle=solid;" parent="1" vertex="1">
          <mxGeometry x="498.75" y="489.65999999999997" width="40" height="40" as="geometry" />
        </mxCell>
        <mxCell id="q-oMBy3fRmky4EhN0mfx-8" value="↷" style="whiteSpace=wrap;html=1;aspect=fixed;fontSize=23;fontFamily=Verdana;fontStyle=1;fontColor=#AFB9C7;fillColor=#383E47;rounded=1;spacingBottom=-1;strokeColor=#1E1F20;" parent="1" vertex="1">
          <mxGeometry x="338.75" y="489.32" width="40" height="40" as="geometry" />
        </mxCell>
        <mxCell id="q-oMBy3fRmky4EhN0mfx-9" value="&lt;span style=&quot;font-size: 13px;&quot;&gt;&lt;b&gt;✲Y&lt;/b&gt;&lt;/span&gt;" style="text;html=1;align=center;verticalAlign=middle;whiteSpace=wrap;rounded=0;shadow=0;glass=0;sketch=0;fontFamily=Verdana;fontSize=14;fillColor=none;fontColor=#CC99FF;" parent="1" vertex="1">
          <mxGeometry x="384.6" y="550" width="29.3" height="10" as="geometry" />
        </mxCell>
        <mxCell id="q-oMBy3fRmky4EhN0mfx-10" value="" style="edgeStyle=orthogonalEdgeStyle;rounded=1;orthogonalLoop=1;jettySize=auto;html=1;fontSize=14;fontColor=#9933FF;entryX=0.5;entryY=1;entryDx=0;entryDy=0;fontFamily=Verdana;strokeColor=#CC99FF;fillColor=#1ba1e2;exitX=0;exitY=0.5;exitDx=0;exitDy=0;" parent="1" source="q-oMBy3fRmky4EhN0mfx-9" target="q-oMBy3fRmky4EhN0mfx-8" edge="1">
          <mxGeometry relative="1" as="geometry">
            <mxPoint x="429.25" y="550" as="sourcePoint" />
            <mxPoint x="683.95" y="569.8299999999999" as="targetPoint" />
            <Array as="points">
              <mxPoint x="359.25" y="555" />
            </Array>
          </mxGeometry>
        </mxCell>
        <mxCell id="q-oMBy3fRmky4EhN0mfx-15" value="&lt;span style=&quot;font-family: &amp;quot;segoe ui emoji&amp;quot;, &amp;quot;apple color emoji&amp;quot;, &amp;quot;noto color emoji&amp;quot;; font-size: 22px;&quot;&gt;⇧&lt;/span&gt;" style="whiteSpace=wrap;html=1;aspect=fixed;fontSize=22;fontFamily=Verdana;fontStyle=1;fillColor=#4B3E30;strokeColor=#281C01;fontColor=#C2B6A8;rounded=1;spacingTop=-3;" parent="1" vertex="1">
          <mxGeometry x="338.75" y="210.9999999999999" width="40" height="40" as="geometry" />
        </mxCell>
        <mxCell id="q-oMBy3fRmky4EhN0mfx-16" value="&lt;span style=&quot;font-family: &amp;quot;segoe ui emoji&amp;quot;, &amp;quot;apple color emoji&amp;quot;, &amp;quot;noto color emoji&amp;quot;; font-size: 21px;&quot;&gt;✲&lt;/span&gt;" style="whiteSpace=wrap;html=1;aspect=fixed;fontSize=21;fontFamily=Verdana;fontStyle=1;fillColor=#4B3E30;strokeColor=#281C01;fontColor=#C2B6A8;rounded=1;spacingTop=-3;" parent="1" vertex="1">
          <mxGeometry x="259.25" y="800.51" width="40" height="40" as="geometry" />
        </mxCell>
        <mxCell id="q-oMBy3fRmky4EhN0mfx-17" value="&lt;span style=&quot;font-size: 13px;&quot;&gt;&lt;/span&gt;&lt;span style=&quot;font-family: &amp;quot;segoe ui emoji&amp;quot;, &amp;quot;apple color emoji&amp;quot;, &amp;quot;noto color emoji&amp;quot;; font-size: 13px;&quot;&gt;❖&lt;/span&gt;&lt;span style=&quot;font-family: &amp;quot;segoe ui emoji&amp;quot;, &amp;quot;apple color emoji&amp;quot;, &amp;quot;noto color emoji&amp;quot;;&quot;&gt;&lt;font style=&quot;font-size: 6px;&quot;&gt; &lt;/font&gt;&lt;font style=&quot;font-size: 13px;&quot;&gt;|&lt;/font&gt;&lt;font style=&quot;font-size: 6px;&quot;&gt;&amp;nbsp;&lt;/font&gt;&lt;/span&gt;&lt;span style=&quot;font-family: &amp;quot;segoe ui emoji&amp;quot;, &amp;quot;apple color emoji&amp;quot;, &amp;quot;noto color emoji&amp;quot;; font-size: 13px;&quot;&gt;✲&lt;/span&gt;" style="whiteSpace=wrap;html=1;aspect=fixed;fontSize=13;fontFamily=Verdana;fontStyle=1;fontColor=#AFB9C7;fillColor=#383E47;rounded=1;strokeColor=#1E1F20;" parent="1" vertex="1">
          <mxGeometry x="259.25" y="210.99999999999994" width="40" height="40" as="geometry" />
        </mxCell>
        <mxCell id="2kq-ViG5CG2kdELd6mRq-2" value="" style="whiteSpace=wrap;html=1;aspect=fixed;fontSize=17;fontFamily=Verdana;fontStyle=1;fontColor=#AFB9C7;fillColor=#383E47;rounded=1;strokeColor=#1E1F20;" vertex="1" parent="1">
          <mxGeometry x="218.75" y="1080" width="40" height="40" as="geometry" />
        </mxCell>
        <mxCell id="2kq-ViG5CG2kdELd6mRq-3" value="" style="whiteSpace=wrap;html=1;aspect=fixed;fontSize=17;fontFamily=Verdana;fontStyle=1;fontColor=#AFB9C7;fillColor=#383E47;rounded=1;strokeColor=#1E1F20;" vertex="1" parent="1">
          <mxGeometry x="178.75" y="1080" width="40" height="40" as="geometry" />
        </mxCell>
        <mxCell id="2kq-ViG5CG2kdELd6mRq-4" value="" style="whiteSpace=wrap;html=1;aspect=fixed;fontSize=17;fontFamily=Verdana;fontStyle=1;fontColor=#AFB9C7;fillColor=#383E47;rounded=1;strokeColor=#1E1F20;" vertex="1" parent="1">
          <mxGeometry x="538.75" y="1080" width="40" height="40" as="geometry" />
        </mxCell>
        <mxCell id="2kq-ViG5CG2kdELd6mRq-5" value="" style="whiteSpace=wrap;html=1;aspect=fixed;fontSize=17;fontFamily=Verdana;fontStyle=1;fontColor=#AFB9C7;fillColor=#383E47;rounded=1;strokeColor=#1E1F20;" vertex="1" parent="1">
          <mxGeometry x="578.75" y="1080" width="40" height="40" as="geometry" />
        </mxCell>
        <mxCell id="2kq-ViG5CG2kdELd6mRq-6" value="" style="whiteSpace=wrap;html=1;aspect=fixed;fontSize=17;fontFamily=Verdana;fontStyle=1;fontColor=#AFB9C7;fillColor=#383E47;rounded=1;strokeColor=#1E1F20;" vertex="1" parent="1">
          <mxGeometry x="618.75" y="1080" width="40" height="40" as="geometry" />
        </mxCell>
        <mxCell id="2kq-ViG5CG2kdELd6mRq-13" value="" style="whiteSpace=wrap;html=1;aspect=fixed;fontSize=17;fontFamily=Verdana;fontStyle=1;fontColor=#AFB9C7;fillColor=#383E47;rounded=1;strokeColor=#1E1F20;" vertex="1" parent="1">
          <mxGeometry x="378.75" y="960" width="40" height="40" as="geometry" />
        </mxCell>
        <mxCell id="2kq-ViG5CG2kdELd6mRq-18" value="" style="whiteSpace=wrap;html=1;aspect=fixed;fontSize=17;fontFamily=Verdana;fontStyle=1;fontColor=#AFB9C7;fillColor=#383E47;rounded=1;strokeColor=#1E1F20;" vertex="1" parent="1">
          <mxGeometry x="378.75" y="1000" width="40" height="40" as="geometry" />
        </mxCell>
        <mxCell id="2kq-ViG5CG2kdELd6mRq-19" value="F1" style="whiteSpace=wrap;html=1;aspect=fixed;fontSize=14;fontFamily=Verdana;fontStyle=1;fontColor=#AFB9C7;fillColor=#383E47;rounded=1;strokeColor=#1E1F20;" vertex="1" parent="1">
          <mxGeometry x="218.75" y="1040" width="40" height="40" as="geometry" />
        </mxCell>
        <mxCell id="2kq-ViG5CG2kdELd6mRq-20" value="F2" style="whiteSpace=wrap;html=1;aspect=fixed;fontSize=14;fontFamily=Verdana;fontStyle=1;fontColor=#AFB9C7;fillColor=#383E47;rounded=1;strokeColor=#1E1F20;" vertex="1" parent="1">
          <mxGeometry x="258.75" y="1040" width="40" height="40" as="geometry" />
        </mxCell>
        <mxCell id="2kq-ViG5CG2kdELd6mRq-21" value="F3" style="whiteSpace=wrap;html=1;aspect=fixed;fontSize=14;fontFamily=Verdana;fontStyle=1;fontColor=#AFB9C7;fillColor=#383E47;rounded=1;strokeColor=#1E1F20;" vertex="1" parent="1">
          <mxGeometry x="298.75" y="1040" width="40" height="40" as="geometry" />
        </mxCell>
        <mxCell id="2kq-ViG5CG2kdELd6mRq-22" value="F4" style="whiteSpace=wrap;html=1;aspect=fixed;fontSize=14;fontFamily=Verdana;fontStyle=1;fontColor=#AFB9C7;fillColor=#383E47;rounded=1;strokeColor=#1E1F20;" vertex="1" parent="1">
          <mxGeometry x="338.75" y="1040" width="40" height="40" as="geometry" />
        </mxCell>
        <mxCell id="2kq-ViG5CG2kdELd6mRq-23" value="%" style="whiteSpace=wrap;html=1;aspect=fixed;fontSize=17;fontFamily=Verdana;fontStyle=1;fontColor=#AFB9C7;fillColor=#383E47;rounded=1;strokeColor=#1E1F20;" vertex="1" parent="1">
          <mxGeometry x="378.75" y="1040" width="40" height="40" as="geometry" />
        </mxCell>
        <mxCell id="2kq-ViG5CG2kdELd6mRq-24" value="Num&lt;br style=&quot;font-size: 9px;&quot;&gt;Lock" style="whiteSpace=wrap;html=1;aspect=fixed;fontSize=9;fontFamily=Verdana;fontStyle=1;fontColor=#AFB9C7;fillColor=#383E47;rounded=1;strokeColor=#1E1F20;" vertex="1" parent="1">
          <mxGeometry x="418.75" y="960" width="40" height="40" as="geometry" />
        </mxCell>
        <mxCell id="2kq-ViG5CG2kdELd6mRq-25" value="7" style="whiteSpace=wrap;html=1;aspect=fixed;fontSize=17;fontFamily=Verdana;fontStyle=1;fontColor=#AFB9C7;fillColor=#383E47;rounded=1;strokeColor=#1E1F20;" vertex="1" parent="1">
          <mxGeometry x="458.75" y="960" width="40" height="40" as="geometry" />
        </mxCell>
        <mxCell id="2kq-ViG5CG2kdELd6mRq-26" value="8" style="whiteSpace=wrap;html=1;aspect=fixed;fontSize=17;fontFamily=Verdana;fontStyle=1;fontColor=#AFB9C7;fillColor=#383E47;rounded=1;strokeColor=#1E1F20;" vertex="1" parent="1">
          <mxGeometry x="498.75" y="960" width="40" height="40" as="geometry" />
        </mxCell>
        <mxCell id="2kq-ViG5CG2kdELd6mRq-27" value="9" style="whiteSpace=wrap;html=1;aspect=fixed;fontSize=17;fontFamily=Verdana;fontStyle=1;fontColor=#AFB9C7;fillColor=#383E47;rounded=1;strokeColor=#1E1F20;" vertex="1" parent="1">
          <mxGeometry x="538.75" y="960" width="40" height="40" as="geometry" />
        </mxCell>
        <mxCell id="2kq-ViG5CG2kdELd6mRq-28" value="-" style="whiteSpace=wrap;html=1;aspect=fixed;fontSize=17;fontFamily=Verdana;fontStyle=1;fontColor=#AFB9C7;fillColor=#383E47;rounded=1;strokeColor=#1E1F20;" vertex="1" parent="1">
          <mxGeometry x="578.75" y="960" width="40" height="40" as="geometry" />
        </mxCell>
        <mxCell id="2kq-ViG5CG2kdELd6mRq-29" value="*" style="whiteSpace=wrap;html=1;aspect=fixed;fontSize=17;fontFamily=Verdana;fontStyle=1;fontColor=#AFB9C7;fillColor=#383E47;rounded=1;strokeColor=#1E1F20;" vertex="1" parent="1">
          <mxGeometry x="418.75" y="1000" width="40" height="40" as="geometry" />
        </mxCell>
        <mxCell id="2kq-ViG5CG2kdELd6mRq-30" value="4" style="whiteSpace=wrap;html=1;aspect=fixed;fontSize=17;fontFamily=Verdana;fontStyle=1;fontColor=#AFB9C7;fillColor=#383E47;rounded=1;strokeColor=#1E1F20;" vertex="1" parent="1">
          <mxGeometry x="458.75" y="1000" width="40" height="40" as="geometry" />
        </mxCell>
        <mxCell id="2kq-ViG5CG2kdELd6mRq-31" value="5" style="whiteSpace=wrap;html=1;aspect=fixed;fontSize=17;fontFamily=Verdana;fontStyle=1;fontColor=#AFB9C7;fillColor=#383E47;rounded=1;strokeColor=#1E1F20;" vertex="1" parent="1">
          <mxGeometry x="498.75" y="1000" width="40" height="40" as="geometry" />
        </mxCell>
        <mxCell id="2kq-ViG5CG2kdELd6mRq-32" value="6" style="whiteSpace=wrap;html=1;aspect=fixed;fontSize=17;fontFamily=Verdana;fontStyle=1;fontColor=#AFB9C7;fillColor=#383E47;rounded=1;strokeColor=#1E1F20;" vertex="1" parent="1">
          <mxGeometry x="538.75" y="1000" width="40" height="40" as="geometry" />
        </mxCell>
        <mxCell id="2kq-ViG5CG2kdELd6mRq-33" value="+" style="whiteSpace=wrap;html=1;aspect=fixed;fontSize=17;fontFamily=Verdana;fontStyle=1;fontColor=#AFB9C7;fillColor=#383E47;rounded=1;strokeColor=#1E1F20;" vertex="1" parent="1">
          <mxGeometry x="578.75" y="1000" width="40" height="40" as="geometry" />
        </mxCell>
        <mxCell id="2kq-ViG5CG2kdELd6mRq-34" value="/" style="whiteSpace=wrap;html=1;aspect=fixed;fontSize=17;fontFamily=Verdana;fontStyle=1;fontColor=#AFB9C7;fillColor=#383E47;rounded=1;strokeColor=#1E1F20;" vertex="1" parent="1">
          <mxGeometry x="418.75" y="1040" width="40" height="40" as="geometry" />
        </mxCell>
        <mxCell id="2kq-ViG5CG2kdELd6mRq-35" value="1" style="whiteSpace=wrap;html=1;aspect=fixed;fontSize=17;fontFamily=Verdana;fontStyle=1;fontColor=#AFB9C7;fillColor=#383E47;rounded=1;strokeColor=#1E1F20;" vertex="1" parent="1">
          <mxGeometry x="458.75" y="1040" width="40" height="40" as="geometry" />
        </mxCell>
        <mxCell id="2kq-ViG5CG2kdELd6mRq-36" value="2" style="whiteSpace=wrap;html=1;aspect=fixed;fontSize=17;fontFamily=Verdana;fontStyle=1;fontColor=#AFB9C7;fillColor=#383E47;rounded=1;strokeColor=#1E1F20;" vertex="1" parent="1">
          <mxGeometry x="498.75" y="1040" width="40" height="40" as="geometry" />
        </mxCell>
        <mxCell id="2kq-ViG5CG2kdELd6mRq-37" value="3" style="whiteSpace=wrap;html=1;aspect=fixed;fontSize=17;fontFamily=Verdana;fontStyle=1;fontColor=#AFB9C7;fillColor=#383E47;rounded=1;strokeColor=#1E1F20;" vertex="1" parent="1">
          <mxGeometry x="538.75" y="1040" width="40" height="40" as="geometry" />
        </mxCell>
        <mxCell id="2kq-ViG5CG2kdELd6mRq-38" value="," style="whiteSpace=wrap;html=1;aspect=fixed;fontSize=17;fontFamily=Verdana;fontStyle=1;fontColor=#AFB9C7;fillColor=#383E47;rounded=1;strokeColor=#1E1F20;" vertex="1" parent="1">
          <mxGeometry x="578.75" y="1040" width="40" height="40" as="geometry" />
        </mxCell>
        <mxCell id="2kq-ViG5CG2kdELd6mRq-39" value="⎋" style="whiteSpace=wrap;html=1;aspect=fixed;fontSize=30;fontFamily=Verdana;fontStyle=1;fontColor=#AFB9C7;fillColor=#383E47;rounded=1;spacingTop=-12;strokeColor=#1E1F20;" vertex="1" parent="1">
          <mxGeometry x="178.75" y="960" width="40" height="40" as="geometry" />
        </mxCell>
        <mxCell id="2kq-ViG5CG2kdELd6mRq-40" value="⌫" style="whiteSpace=wrap;html=1;aspect=fixed;fontSize=17;fontFamily=Verdana;fontStyle=1;fontColor=#AFB9C7;fillColor=#383E47;rounded=1;spacingLeft=-2;strokeColor=#1E1F20;" vertex="1" parent="1">
          <mxGeometry x="178.75" y="1000" width="40" height="40" as="geometry" />
        </mxCell>
        <mxCell id="2kq-ViG5CG2kdELd6mRq-41" value="" style="whiteSpace=wrap;html=1;aspect=fixed;fontSize=17;fontFamily=Verdana;fontStyle=1;fontColor=#AFB9C7;fillColor=#383E47;rounded=1;strokeColor=#1E1F20;" vertex="1" parent="1">
          <mxGeometry x="178.75" y="1040" width="40" height="40" as="geometry" />
        </mxCell>
        <mxCell id="2kq-ViG5CG2kdELd6mRq-43" value="" style="whiteSpace=wrap;html=1;aspect=fixed;fontSize=17;fontFamily=Verdana;fontStyle=1;fontColor=#AFB9C7;fillColor=#383E47;rounded=1;glass=0;strokeColor=#1E1F20;" vertex="1" parent="1">
          <mxGeometry x="618.75" y="1040" width="40" height="40" as="geometry" />
        </mxCell>
        <mxCell id="2kq-ViG5CG2kdELd6mRq-44" value="." style="whiteSpace=wrap;html=1;aspect=fixed;fontSize=17;fontFamily=Verdana;fontStyle=1;fontColor=#AFB9C7;fillColor=#383E47;rounded=1;strokeColor=#1E1F20;" vertex="1" parent="1">
          <mxGeometry x="618.25" y="1000" width="40" height="40" as="geometry" />
        </mxCell>
        <mxCell id="2kq-ViG5CG2kdELd6mRq-45" value="&lt;p style=&quot;line-height: 0%; font-size: 23px;&quot;&gt;&lt;span style=&quot;font-size: 23px;&quot;&gt;⏎&lt;/span&gt;&lt;br style=&quot;font-size: 23px;&quot;&gt;&lt;/p&gt;&lt;p style=&quot;font-size: 23px;&quot;&gt;&lt;/p&gt;" style="whiteSpace=wrap;html=1;rotation=0;fontSize=23;fontFamily=Verdana;fontStyle=1;fontColor=#AFB9C7;fillColor=#383E47;rounded=1;spacingTop=-4;strokeColor=#1E1F20;spacingBottom=0;" vertex="1" parent="1">
          <mxGeometry x="378.75" y="1080.17" width="80" height="40" as="geometry" />
        </mxCell>
        <mxCell id="2kq-ViG5CG2kdELd6mRq-46" value="[" style="whiteSpace=wrap;html=1;aspect=fixed;rotation=0;fontSize=20;fontFamily=Verdana;fontStyle=0;fontColor=#AFB9C7;fillColor=#383E47;rounded=1;strokeColor=#1E1F20;horizontal=0;spacingLeft=-12;spacingTop=-6;" vertex="1" parent="1">
          <mxGeometry x="458.75" y="1080.1700000000003" width="40" height="40" as="geometry" />
        </mxCell>
        <mxCell id="2kq-ViG5CG2kdELd6mRq-47" value="&lt;span style=&quot;font-family: &amp;quot;segoe ui emoji&amp;quot;, &amp;quot;apple color emoji&amp;quot;, &amp;quot;noto color emoji&amp;quot;; font-size: 21px;&quot;&gt;✲&lt;/span&gt;" style="whiteSpace=wrap;html=1;aspect=fixed;fontSize=21;fontFamily=Verdana;fontStyle=1;fillColor=#4B3E30;strokeColor=#281C01;fontColor=#C2B6A8;rounded=1;spacingTop=-3;" vertex="1" parent="1">
          <mxGeometry x="338.75" y="1080.17" width="40" height="40" as="geometry" />
        </mxCell>
        <mxCell id="2kq-ViG5CG2kdELd6mRq-53" value="F11" style="whiteSpace=wrap;html=1;aspect=fixed;fontSize=13;fontFamily=Verdana;fontStyle=1;fontColor=#AFB9C7;fillColor=#383E47;rounded=1;strokeColor=#1E1F20;" vertex="1" parent="1">
          <mxGeometry x="299.25" y="960" width="40" height="40" as="geometry" />
        </mxCell>
        <mxCell id="2kq-ViG5CG2kdELd6mRq-54" value="F12" style="whiteSpace=wrap;html=1;aspect=fixed;fontSize=13;fontFamily=Verdana;fontStyle=1;fontColor=#AFB9C7;fillColor=#383E47;rounded=1;strokeColor=#1E1F20;" vertex="1" parent="1">
          <mxGeometry x="339.25" y="960" width="40" height="40" as="geometry" />
        </mxCell>
        <mxCell id="2kq-ViG5CG2kdELd6mRq-55" value="F10" style="whiteSpace=wrap;html=1;aspect=fixed;fontSize=13;fontFamily=Verdana;fontStyle=1;fontColor=#AFB9C7;fillColor=#383E47;rounded=1;strokeColor=#1E1F20;" vertex="1" parent="1">
          <mxGeometry x="259.25" y="960" width="40" height="40" as="geometry" />
        </mxCell>
        <mxCell id="2kq-ViG5CG2kdELd6mRq-56" value="F9" style="whiteSpace=wrap;html=1;aspect=fixed;fontSize=14;fontFamily=Verdana;fontStyle=1;fontColor=#AFB9C7;fillColor=#383E47;rounded=1;strokeColor=#1E1F20;" vertex="1" parent="1">
          <mxGeometry x="219.25" y="960" width="40" height="40" as="geometry" />
        </mxCell>
        <mxCell id="2kq-ViG5CG2kdELd6mRq-59" value="" style="whiteSpace=wrap;html=1;aspect=fixed;fontSize=17;fontFamily=Verdana;fontStyle=1;fontColor=#AFB9C7;fillColor=#383E47;rounded=1;strokeColor=#1E1F20;" vertex="1" parent="1">
          <mxGeometry x="259.25" y="1080.17" width="40" height="40" as="geometry" />
        </mxCell>
        <mxCell id="2kq-ViG5CG2kdELd6mRq-58" value="⎇" style="whiteSpace=wrap;html=1;aspect=fixed;rotation=0;fontSize=27;fontFamily=Verdana;fontStyle=1;fontColor=#333333;fillColor=#9F978E;strokeColor=#666666;shadow=0;sketch=0;rounded=1;glass=0;dashed=1;spacingTop=-10;" vertex="1" parent="1">
          <mxGeometry x="298.75" y="1079.9999999999998" width="40" height="40" as="geometry" />
        </mxCell>
        <mxCell id="2kq-ViG5CG2kdELd6mRq-7" value="0" style="whiteSpace=wrap;html=1;aspect=fixed;rotation=0;fontSize=17;fontFamily=Verdana;fontStyle=1;fontColor=#333333;fillColor=#9F978E;strokeColor=#666666;shadow=0;sketch=0;rounded=1;glass=0;dashed=1;" vertex="1" parent="1">
          <mxGeometry x="498.75" y="1080.1699999999998" width="40" height="40" as="geometry" />
        </mxCell>
        <mxCell id="gDNsKO5x_6u3mnAIkDh--81" value="&lt;font color=&quot;#5c5100&quot; style=&quot;font-size: 12px;&quot;&gt;Num&lt;/font&gt;" style="whiteSpace=wrap;html=1;aspect=fixed;rotation=0;fontSize=12;fontFamily=Verdana;fontStyle=1;fillColor=#F6DC1E;strokeColor=#B09500;fontColor=#000000;rounded=1;fillStyle=solid;" parent="1" vertex="1">
          <mxGeometry x="299.25" y="800.51" width="40" height="40" as="geometry" />
        </mxCell>
        <mxCell id="2kq-ViG5CG2kdELd6mRq-60" value="&lt;span style=&quot;font-family: &amp;quot;segoe ui emoji&amp;quot;, &amp;quot;apple color emoji&amp;quot;, &amp;quot;noto color emoji&amp;quot;; font-size: 22px;&quot;&gt;⇧&lt;/span&gt;" style="whiteSpace=wrap;html=1;aspect=fixed;fontSize=22;fontFamily=Verdana;fontStyle=1;fillColor=#4B3E30;strokeColor=#281C01;fontColor=#C2B6A8;rounded=1;spacingTop=-3;" vertex="1" parent="1">
          <mxGeometry x="459.25" y="800.34" width="40" height="40" as="geometry" />
        </mxCell>
        <mxCell id="gDNsKO5x_6u3mnAIkDh--60" value="" style="whiteSpace=wrap;html=1;aspect=fixed;rotation=0;fontSize=17;fontFamily=Verdana;fontStyle=1;fontColor=#333333;fillColor=#8D9A9E;strokeColor=#666666;shadow=0;sketch=0;rounded=1;glass=0;dashed=1;" parent="1" vertex="1">
          <mxGeometry x="499.25" y="800.5099999999999" width="40" height="40" as="geometry" />
        </mxCell>
        <mxCell id="2kq-ViG5CG2kdELd6mRq-61" value="⌫" style="whiteSpace=wrap;html=1;aspect=fixed;fontSize=17;fontFamily=Verdana;fontStyle=1;fontColor=#AFB9C7;fillColor=#383E47;rounded=1;spacingLeft=-2;strokeColor=#1E1F20;" vertex="1" parent="1">
          <mxGeometry x="619.25" y="960" width="40" height="40" as="geometry" />
        </mxCell>
        <mxCell id="2kq-ViG5CG2kdELd6mRq-62" value="" style="sketch=0;pointerEvents=1;shadow=0;dashed=0;html=1;strokeColor=none;labelPosition=center;verticalLabelPosition=bottom;verticalAlign=top;outlineConnect=0;align=center;shape=mxgraph.office.security.lock_protected;fillColor=#AFB9C7;labelBackgroundColor=none;fontSize=9;fontColor=#AFB9C7;" vertex="1" parent="1">
          <mxGeometry x="634.12" y="1053" width="10.23" height="14" as="geometry" />
        </mxCell>
        <mxCell id="2kq-ViG5CG2kdELd6mRq-65" value="" style="group" vertex="1" connectable="0" parent="1">
          <mxGeometry x="619.25" y="760.34" width="40" height="40" as="geometry" />
        </mxCell>
        <mxCell id="2kq-ViG5CG2kdELd6mRq-63" value="" style="whiteSpace=wrap;html=1;aspect=fixed;fontSize=17;fontFamily=Verdana;fontStyle=1;fontColor=#AFB9C7;fillColor=#383E47;rounded=1;glass=0;strokeColor=#1E1F20;" vertex="1" parent="2kq-ViG5CG2kdELd6mRq-65">
          <mxGeometry width="40" height="40" as="geometry" />
        </mxCell>
        <mxCell id="2kq-ViG5CG2kdELd6mRq-64" value="" style="sketch=0;pointerEvents=1;shadow=0;dashed=0;html=1;strokeColor=none;labelPosition=center;verticalLabelPosition=bottom;verticalAlign=top;outlineConnect=0;align=center;shape=mxgraph.office.security.lock_protected;fillColor=#AFB9C7;labelBackgroundColor=none;fontSize=9;fontColor=#AFB9C7;" vertex="1" parent="2kq-ViG5CG2kdELd6mRq-65">
          <mxGeometry x="15.370000000000005" y="13" width="10.23" height="14" as="geometry" />
        </mxCell>
        <mxCell id="2kq-ViG5CG2kdELd6mRq-66" value="" style="group" vertex="1" connectable="0" parent="1">
          <mxGeometry x="619.25" y="449.32000000000005" width="40" height="40" as="geometry" />
        </mxCell>
        <mxCell id="2kq-ViG5CG2kdELd6mRq-67" value="" style="whiteSpace=wrap;html=1;aspect=fixed;fontSize=17;fontFamily=Verdana;fontStyle=1;fontColor=#AFB9C7;fillColor=#383E47;rounded=1;glass=0;strokeColor=#1E1F20;" vertex="1" parent="2kq-ViG5CG2kdELd6mRq-66">
          <mxGeometry width="40" height="40" as="geometry" />
        </mxCell>
        <mxCell id="2kq-ViG5CG2kdELd6mRq-68" value="" style="sketch=0;pointerEvents=1;shadow=0;dashed=0;html=1;strokeColor=none;labelPosition=center;verticalLabelPosition=bottom;verticalAlign=top;outlineConnect=0;align=center;shape=mxgraph.office.security.lock_protected;fillColor=#AFB9C7;labelBackgroundColor=none;fontSize=9;fontColor=#AFB9C7;" vertex="1" parent="2kq-ViG5CG2kdELd6mRq-66">
          <mxGeometry x="15.370000000000005" y="13" width="10.23" height="14" as="geometry" />
        </mxCell>
        <mxCell id="2kq-ViG5CG2kdELd6mRq-69" value="&lt;div style=&quot;line-height: 160%;&quot;&gt;&lt;b&gt;&lt;font style=&quot;font-size: 14px;&quot;&gt;Tap Mod Keys&lt;/font&gt;&lt;/b&gt;&lt;/div&gt;&lt;div style=&quot;line-height: 160%; font-size: 12px;&quot;&gt;&lt;font style=&quot;font-size: 12px;&quot;&gt;tap: function&lt;/font&gt;&lt;/div&gt;&lt;div style=&quot;line-height: 130%; font-size: 12px;&quot;&gt;&lt;font style=&quot;background-color: initial;&quot;&gt;hold: mod&lt;/font&gt;&lt;i style=&quot;background-color: initial;&quot;&gt;&lt;font style=&quot;font-size: 6px;&quot;&gt;&amp;nbsp;&lt;/font&gt;&lt;/i&gt;&lt;/div&gt;" style="text;html=1;strokeColor=none;fillColor=none;align=left;verticalAlign=middle;whiteSpace=wrap;rounded=0;shadow=0;glass=0;sketch=0;fontFamily=Verdana;fontSize=13;fontColor=#CC99FF;" vertex="1" parent="1">
          <mxGeometry x="48.75" y="1031" width="120.5" height="58" as="geometry" />
        </mxCell>
        <mxCell id="2kq-ViG5CG2kdELd6mRq-70" value="" style="endArrow=classic;html=1;fontFamily=Verdana;fontSize=14;fontColor=#9933FF;rounded=1;strokeColor=#CC99FF;entryX=-0.02;entryY=0.178;entryDx=0;entryDy=0;entryPerimeter=0;fillColor=#1ba1e2;" edge="1" parent="1">
          <mxGeometry width="50" height="50" relative="1" as="geometry">
            <mxPoint x="99.25" y="1030" as="sourcePoint" />
            <mxPoint x="217.95000000000005" y="1009.4799999999999" as="targetPoint" />
            <Array as="points">
              <mxPoint x="99.25" y="1009" />
              <mxPoint x="149.25" y="1009.87" />
            </Array>
          </mxGeometry>
        </mxCell>
        <mxCell id="2kq-ViG5CG2kdELd6mRq-77" value="&lt;p style=&quot;line-height: 60%;&quot;&gt;&lt;font style=&quot;font-size: 12px;&quot;&gt;F8&lt;/font&gt;&lt;/p&gt;&lt;div style=&quot;line-height: 20%;&quot;&gt;&lt;font color=&quot;#333333&quot; style=&quot;background-color: rgb(158, 158, 158);&quot;&gt;&amp;nbsp; ✲&amp;nbsp;&amp;nbsp;&lt;/font&gt;&lt;br&gt;&lt;/div&gt;&lt;p&gt;&lt;/p&gt;" style="whiteSpace=wrap;html=1;rotation=0;fontSize=12;fontFamily=Verdana;fontStyle=1;fontColor=#AFB9C7;fillColor=#383E47;rounded=1;strokeColor=#1E1F20;spacingBottom=0;spacingTop=-4;" vertex="1" parent="1">
          <mxGeometry x="339.25" y="1001" width="40" height="40" as="geometry" />
        </mxCell>
        <mxCell id="2kq-ViG5CG2kdELd6mRq-78" value="&lt;p style=&quot;line-height: 60%;&quot;&gt;&lt;font style=&quot;font-size: 12px;&quot;&gt;F7&lt;/font&gt;&lt;/p&gt;&lt;div style=&quot;line-height: 20%;&quot;&gt;&lt;font color=&quot;#333333&quot; style=&quot;background-color: rgb(158, 158, 158);&quot;&gt;&amp;nbsp; ⇧&amp;nbsp;&amp;nbsp;&lt;/font&gt;&lt;br&gt;&lt;/div&gt;&lt;p&gt;&lt;/p&gt;" style="whiteSpace=wrap;html=1;rotation=0;fontSize=12;fontFamily=Verdana;fontStyle=1;fontColor=#AFB9C7;fillColor=#383E47;rounded=1;strokeColor=#1E1F20;spacingBottom=0;spacingTop=-4;" vertex="1" parent="1">
          <mxGeometry x="299.25" y="1001" width="40" height="40" as="geometry" />
        </mxCell>
        <mxCell id="2kq-ViG5CG2kdELd6mRq-79" value="&lt;p style=&quot;line-height: 60%;&quot;&gt;&lt;font style=&quot;font-size: 12px;&quot;&gt;F6&lt;/font&gt;&lt;/p&gt;&lt;div style=&quot;line-height: 20%;&quot;&gt;&lt;font color=&quot;#333333&quot; style=&quot;background-color: rgb(158, 158, 158);&quot;&gt;&amp;nbsp; ⎇&amp;nbsp;&amp;nbsp;&lt;/font&gt;&lt;br&gt;&lt;/div&gt;&lt;p&gt;&lt;/p&gt;" style="whiteSpace=wrap;html=1;rotation=0;fontSize=12;fontFamily=Verdana;fontStyle=1;fontColor=#AFB9C7;fillColor=#383E47;rounded=1;strokeColor=#1E1F20;spacingBottom=0;spacingTop=-4;" vertex="1" parent="1">
          <mxGeometry x="258.75" y="1001" width="40" height="40" as="geometry" />
        </mxCell>
        <mxCell id="2kq-ViG5CG2kdELd6mRq-80" value="&lt;p style=&quot;line-height: 60%;&quot;&gt;&lt;font style=&quot;font-size: 12px;&quot;&gt;F5&lt;/font&gt;&lt;/p&gt;&lt;div style=&quot;line-height: 20%;&quot;&gt;&lt;font color=&quot;#333333&quot; style=&quot;background-color: rgb(158, 158, 158);&quot;&gt;&amp;nbsp; ❖&amp;nbsp;&amp;nbsp;&lt;/font&gt;&lt;br&gt;&lt;/div&gt;&lt;p&gt;&lt;/p&gt;" style="whiteSpace=wrap;html=1;rotation=0;fontSize=12;fontFamily=Verdana;fontStyle=1;fontColor=#AFB9C7;fillColor=#383E47;rounded=1;strokeColor=#1E1F20;spacingBottom=0;spacingTop=-4;" vertex="1" parent="1">
          <mxGeometry x="219.25" y="1000" width="40" height="40" as="geometry" />
        </mxCell>
        <mxCell id="2kq-ViG5CG2kdELd6mRq-81" value="" style="edgeStyle=orthogonalEdgeStyle;rounded=1;orthogonalLoop=1;jettySize=auto;html=1;fontSize=14;fontColor=#9933FF;entryX=1.023;entryY=0.506;entryDx=0;entryDy=0;fontFamily=Verdana;strokeColor=#CC99FF;fillColor=#1ba1e2;entryPerimeter=0;exitX=0.563;exitY=1.012;exitDx=0;exitDy=0;exitPerimeter=0;" edge="1" source="2kq-ViG5CG2kdELd6mRq-82" parent="1" target="2kq-ViG5CG2kdELd6mRq-63">
          <mxGeometry relative="1" as="geometry">
            <mxPoint x="719.25" y="760" as="sourcePoint" />
            <mxPoint x="686.48" y="749.9999999999999" as="targetPoint" />
          </mxGeometry>
        </mxCell>
        <mxCell id="2kq-ViG5CG2kdELd6mRq-82" value="&lt;span style=&quot;font-size: 11px;&quot;&gt;&lt;b style=&quot;font-size: 11px;&quot;&gt;Lock Layer&lt;/b&gt;&lt;/span&gt;" style="text;html=1;align=center;verticalAlign=middle;whiteSpace=wrap;rounded=0;shadow=0;glass=0;sketch=0;fontFamily=Verdana;fontSize=11;fillColor=none;fontColor=#CC99FF;" vertex="1" parent="1">
          <mxGeometry x="672.75" y="710" width="43.5" height="34" as="geometry" />
        </mxCell>
      </root>
    </mxGraphModel>
  </diagram>
  <diagram id="LNAtPgisddjW0HJwoD2a" name="Page-2">
    <mxGraphModel dx="2998" dy="1632" grid="1" gridSize="10" guides="1" tooltips="1" connect="1" arrows="1" fold="1" page="1" pageScale="1" pageWidth="850" pageHeight="1100" math="0" shadow="0">
      <root>
        <mxCell id="0" />
        <mxCell id="1" parent="0" />
        <mxCell id="4EDFmAKFLUPn2XApTLZm-1" value="◀" style="whiteSpace=wrap;html=1;aspect=fixed;fontSize=15;fontFamily=Verdana;fontStyle=1;fontColor=#AFB9C7;fillColor=#383E47;rounded=1;spacingTop=-4;strokeColor=#1E1F20;" vertex="1" parent="1">
          <mxGeometry x="1020" y="399.83" width="40" height="40" as="geometry" />
        </mxCell>
        <mxCell id="4EDFmAKFLUPn2XApTLZm-2" value="⮕" style="whiteSpace=wrap;html=1;aspect=fixed;fontSize=24;fontFamily=Verdana;fontStyle=1;fontColor=#AFB9C7;fillColor=#383E47;rounded=1;strokeColor=#1E1F20;" vertex="1" parent="1">
          <mxGeometry x="960" y="400" width="40" height="40" as="geometry" />
        </mxCell>
        <mxCell id="4EDFmAKFLUPn2XApTLZm-3" value="http://xahlee.info/comp/unicode_computing_symbols.html" style="text;html=1;align=center;verticalAlign=middle;resizable=0;points=[];autosize=1;strokeColor=none;fillColor=none;fontSize=16;fontColor=#A63AC7;" vertex="1" parent="1">
          <mxGeometry x="-560" y="243" width="430" height="30" as="geometry" />
        </mxCell>
        <mxCell id="4EDFmAKFLUPn2XApTLZm-4" value="▼" style="whiteSpace=wrap;html=1;aspect=fixed;fontSize=15;fontFamily=Verdana;fontStyle=1;fontColor=#AFB9C7;fillColor=#383E47;rounded=1;spacingTop=-2;strokeColor=#1E1F20;" vertex="1" parent="1">
          <mxGeometry x="1060" y="399.48999999999995" width="40" height="40" as="geometry" />
        </mxCell>
        <mxCell id="4EDFmAKFLUPn2XApTLZm-5" value="▲" style="whiteSpace=wrap;html=1;aspect=fixed;fontSize=15;fontFamily=Verdana;fontStyle=1;fontColor=#AFB9C7;fillColor=#383E47;rounded=1;spacingTop=-4;strokeColor=#1E1F20;" vertex="1" parent="1">
          <mxGeometry x="1060" y="360" width="40" height="40" as="geometry" />
        </mxCell>
        <mxCell id="4EDFmAKFLUPn2XApTLZm-6" value="▶" style="whiteSpace=wrap;html=1;aspect=fixed;fontSize=15;fontFamily=Verdana;fontStyle=1;fontColor=#AFB9C7;fillColor=#383E47;rounded=1;spacingTop=-4;strokeColor=#1E1F20;" vertex="1" parent="1">
          <mxGeometry x="1100" y="400" width="40" height="40" as="geometry" />
        </mxCell>
        <mxCell id="4EDFmAKFLUPn2XApTLZm-7" value="&lt;span style=&quot;font-family: &amp;quot;segoe ui emoji&amp;quot;, &amp;quot;apple color emoji&amp;quot;, &amp;quot;noto color emoji&amp;quot;; font-size: 28px;&quot;&gt;←&lt;/span&gt;" style="whiteSpace=wrap;html=1;aspect=fixed;fontSize=28;fontFamily=Verdana;fontStyle=1;fontColor=#AFB9C7;fillColor=#383E47;rounded=1;spacingTop=-4;strokeColor=#1E1F20;" vertex="1" parent="1">
          <mxGeometry x="880" y="520" width="40" height="40" as="geometry" />
        </mxCell>
        <mxCell id="4EDFmAKFLUPn2XApTLZm-8" value="&lt;span style=&quot;font-family: &amp;quot;segoe ui emoji&amp;quot;, &amp;quot;apple color emoji&amp;quot;, &amp;quot;noto color emoji&amp;quot;; font-size: 28px;&quot;&gt;↑&lt;/span&gt;" style="whiteSpace=wrap;html=1;aspect=fixed;fontSize=28;fontFamily=Verdana;fontStyle=1;fontColor=#AFB9C7;fillColor=#383E47;rounded=1;spacingTop=-4;strokeColor=#1E1F20;" vertex="1" parent="1">
          <mxGeometry x="920" y="480" width="40" height="40" as="geometry" />
        </mxCell>
        <mxCell id="4EDFmAKFLUPn2XApTLZm-9" value="&lt;span style=&quot;font-family: &amp;quot;segoe ui emoji&amp;quot;, &amp;quot;apple color emoji&amp;quot;, &amp;quot;noto color emoji&amp;quot;; font-size: 28px;&quot;&gt;↓&lt;/span&gt;" style="whiteSpace=wrap;html=1;aspect=fixed;fontSize=28;fontFamily=Verdana;fontStyle=1;fontColor=#AFB9C7;fillColor=#383E47;rounded=1;spacingTop=-4;strokeColor=#1E1F20;" vertex="1" parent="1">
          <mxGeometry x="920" y="520" width="40" height="40" as="geometry" />
        </mxCell>
        <mxCell id="4EDFmAKFLUPn2XApTLZm-10" value="&lt;span style=&quot;font-family: &amp;quot;segoe ui emoji&amp;quot;, &amp;quot;apple color emoji&amp;quot;, &amp;quot;noto color emoji&amp;quot;; font-size: 28px;&quot;&gt;→&lt;/span&gt;" style="whiteSpace=wrap;html=1;aspect=fixed;fontSize=28;fontFamily=Verdana;fontStyle=1;fontColor=#AFB9C7;fillColor=#383E47;rounded=1;spacingTop=-4;strokeColor=#1E1F20;" vertex="1" parent="1">
          <mxGeometry x="960" y="520" width="40" height="40" as="geometry" />
        </mxCell>
        <mxCell id="4EDFmAKFLUPn2XApTLZm-11" value="⬇" style="whiteSpace=wrap;html=1;aspect=fixed;fontSize=24;fontFamily=Verdana;fontStyle=1;fontColor=#AFB9C7;fillColor=#383E47;rounded=1;strokeColor=#1E1F20;" vertex="1" parent="1">
          <mxGeometry x="920" y="400" width="40" height="40" as="geometry" />
        </mxCell>
        <mxCell id="4EDFmAKFLUPn2XApTLZm-12" value="⬅" style="whiteSpace=wrap;html=1;aspect=fixed;fontSize=24;fontFamily=Verdana;fontStyle=1;fontColor=#AFB9C7;fillColor=#383E47;rounded=1;strokeColor=#1E1F20;" vertex="1" parent="1">
          <mxGeometry x="880" y="400" width="40" height="40" as="geometry" />
        </mxCell>
        <mxCell id="4EDFmAKFLUPn2XApTLZm-13" value="⬆" style="whiteSpace=wrap;html=1;aspect=fixed;fontSize=24;fontFamily=Verdana;fontStyle=1;fontColor=#AFB9C7;fillColor=#383E47;rounded=1;strokeColor=#1E1F20;" vertex="1" parent="1">
          <mxGeometry x="920" y="360" width="40" height="40" as="geometry" />
        </mxCell>
        <mxCell id="4EDFmAKFLUPn2XApTLZm-14" value="&lt;p style=&quot;line-height: 0%;&quot;&gt;&lt;span style=&quot;font-size: 14px;&quot;&gt;⏎&lt;/span&gt;&lt;br&gt;&lt;/p&gt;&lt;div style=&quot;line-height: 70%;&quot;&gt;&lt;font color=&quot;#ffffff&quot; style=&quot;font-size: 12px; background-color: rgb(84, 97, 104);&quot;&gt;&amp;nbsp; Num/Fn&amp;nbsp;&amp;nbsp;&lt;/font&gt;&lt;br&gt;&lt;/div&gt;&lt;p&gt;&lt;/p&gt;" style="whiteSpace=wrap;html=1;rotation=0;fontSize=12;fontFamily=Verdana;fontStyle=1;fontColor=#AFB9C7;fillColor=#383E47;rounded=1;strokeColor=#1E1F20;" vertex="1" parent="1">
          <mxGeometry x="920" y="243" width="80" height="40" as="geometry" />
        </mxCell>
        <mxCell id="4EDFmAKFLUPn2XApTLZm-15" value="&lt;p style=&quot;line-height: 6px; font-size: 24px;&quot;&gt;&lt;font style=&quot;font-size: 24px;&quot;&gt;↩&lt;/font&gt;&lt;/p&gt;" style="whiteSpace=wrap;html=1;aspect=fixed;fontSize=24;fontFamily=Verdana;fontStyle=1;fontColor=#AFB9C7;fillColor=#383E47;rounded=1;spacingTop=-3;strokeColor=#1E1F20;" vertex="1" parent="1">
          <mxGeometry x="1020" y="242.99999999999997" width="40" height="40" as="geometry" />
        </mxCell>
        <mxCell id="QbOERGdembJ3T9NwaVXq-1" value="F1" style="whiteSpace=wrap;html=1;aspect=fixed;fontSize=17;fontFamily=Verdana;fontStyle=1;fontColor=#AFB9C7;fillColor=#383E47;rounded=1;strokeColor=#1E1F20;" vertex="1" parent="1">
          <mxGeometry x="176.5" y="1230" width="40" height="40" as="geometry" />
        </mxCell>
        <mxCell id="QbOERGdembJ3T9NwaVXq-2" value="F2" style="whiteSpace=wrap;html=1;aspect=fixed;fontSize=17;fontFamily=Verdana;fontStyle=1;fontColor=#AFB9C7;fillColor=#383E47;rounded=1;strokeColor=#1E1F20;" vertex="1" parent="1">
          <mxGeometry x="216.5" y="1205" width="40" height="40" as="geometry" />
        </mxCell>
        <mxCell id="QbOERGdembJ3T9NwaVXq-3" value="F3" style="whiteSpace=wrap;html=1;aspect=fixed;fontSize=17;fontFamily=Verdana;fontStyle=1;fontColor=#AFB9C7;fillColor=#383E47;rounded=1;strokeColor=#1E1F20;" vertex="1" parent="1">
          <mxGeometry x="256.5" y="1190" width="40" height="40" as="geometry" />
        </mxCell>
        <mxCell id="QbOERGdembJ3T9NwaVXq-4" value="F4" style="whiteSpace=wrap;html=1;aspect=fixed;fontSize=17;fontFamily=Verdana;fontStyle=1;fontColor=#AFB9C7;fillColor=#383E47;rounded=1;strokeColor=#1E1F20;" vertex="1" parent="1">
          <mxGeometry x="296.5" y="1205" width="40" height="40" as="geometry" />
        </mxCell>
        <mxCell id="QbOERGdembJ3T9NwaVXq-5" value="F5" style="whiteSpace=wrap;html=1;aspect=fixed;fontSize=17;fontFamily=Verdana;fontStyle=1;fontColor=#AFB9C7;fillColor=#383E47;rounded=1;strokeColor=#1E1F20;" vertex="1" parent="1">
          <mxGeometry x="336.5" y="1213" width="40" height="40" as="geometry" />
        </mxCell>
        <mxCell id="QbOERGdembJ3T9NwaVXq-6" value="BT&lt;br style=&quot;font-size: 14px;&quot;&gt;RES" style="whiteSpace=wrap;html=1;aspect=fixed;fontSize=14;fontFamily=Verdana;fontStyle=1;fillColor=#5C8CCA;strokeColor=#456893;fontColor=#090e14;rounded=1;" vertex="1" parent="1">
          <mxGeometry x="176.5" y="1310" width="40" height="40" as="geometry" />
        </mxCell>
        <mxCell id="QbOERGdembJ3T9NwaVXq-7" value="" style="whiteSpace=wrap;html=1;aspect=fixed;fontSize=17;fontFamily=Verdana;fontStyle=1;fontColor=#AFB9C7;fillColor=#383E47;rounded=1;strokeColor=#1E1F20;" vertex="1" parent="1">
          <mxGeometry x="216.5" y="1285" width="40" height="40" as="geometry" />
        </mxCell>
        <mxCell id="QbOERGdembJ3T9NwaVXq-8" value="" style="whiteSpace=wrap;html=1;aspect=fixed;fontSize=17;fontFamily=Verdana;fontStyle=1;fontColor=#AFB9C7;fillColor=#383E47;rounded=1;strokeColor=#1E1F20;" vertex="1" parent="1">
          <mxGeometry x="256.5" y="1270" width="40" height="40" as="geometry" />
        </mxCell>
        <mxCell id="QbOERGdembJ3T9NwaVXq-9" value="" style="whiteSpace=wrap;html=1;aspect=fixed;fontSize=17;fontFamily=Verdana;fontStyle=1;fontColor=#AFB9C7;fillColor=#383E47;rounded=1;strokeColor=#1E1F20;" vertex="1" parent="1">
          <mxGeometry x="296.5" y="1285" width="40" height="40" as="geometry" />
        </mxCell>
        <mxCell id="QbOERGdembJ3T9NwaVXq-10" value="BT&lt;br style=&quot;font-size: 14px;&quot;&gt;0" style="whiteSpace=wrap;html=1;aspect=fixed;fontSize=14;fontFamily=Verdana;fontStyle=1;fillColor=#5C8CCA;strokeColor=#456893;fontColor=#090e14;rounded=1;" vertex="1" parent="1">
          <mxGeometry x="336.5" y="1293" width="40" height="40" as="geometry" />
        </mxCell>
        <mxCell id="QbOERGdembJ3T9NwaVXq-11" value="F6" style="whiteSpace=wrap;html=1;aspect=fixed;fontSize=17;fontFamily=Verdana;fontStyle=1;fontColor=#AFB9C7;fillColor=#383E47;rounded=1;strokeColor=#1E1F20;" vertex="1" parent="1">
          <mxGeometry x="504.5" y="1213" width="40" height="40" as="geometry" />
        </mxCell>
        <mxCell id="QbOERGdembJ3T9NwaVXq-12" value="F7" style="whiteSpace=wrap;html=1;aspect=fixed;fontSize=17;fontFamily=Verdana;fontStyle=1;fontColor=#AFB9C7;fillColor=#383E47;rounded=1;strokeColor=#1E1F20;" vertex="1" parent="1">
          <mxGeometry x="544.5" y="1205" width="40" height="40" as="geometry" />
        </mxCell>
        <mxCell id="QbOERGdembJ3T9NwaVXq-13" value="F8" style="whiteSpace=wrap;html=1;aspect=fixed;fontSize=17;fontFamily=Verdana;fontStyle=1;fontColor=#AFB9C7;fillColor=#383E47;rounded=1;strokeColor=#1E1F20;" vertex="1" parent="1">
          <mxGeometry x="584.5" y="1190" width="40" height="40" as="geometry" />
        </mxCell>
        <mxCell id="QbOERGdembJ3T9NwaVXq-14" value="F9" style="whiteSpace=wrap;html=1;aspect=fixed;fontSize=17;fontFamily=Verdana;fontStyle=1;fontColor=#AFB9C7;fillColor=#383E47;rounded=1;strokeColor=#1E1F20;" vertex="1" parent="1">
          <mxGeometry x="624.5" y="1205" width="40" height="40" as="geometry" />
        </mxCell>
        <mxCell id="QbOERGdembJ3T9NwaVXq-15" value="F10" style="whiteSpace=wrap;html=1;aspect=fixed;fontSize=17;fontFamily=Verdana;fontStyle=1;fontColor=#AFB9C7;fillColor=#383E47;rounded=1;strokeColor=#1E1F20;" vertex="1" parent="1">
          <mxGeometry x="667.219298245614" y="1227.4561403508771" width="40" height="40" as="geometry" />
        </mxCell>
        <mxCell id="QbOERGdembJ3T9NwaVXq-16" value="F11" style="whiteSpace=wrap;html=1;aspect=fixed;fontSize=17;fontFamily=Verdana;fontStyle=1;fontColor=#AFB9C7;fillColor=#383E47;rounded=1;strokeColor=#1E1F20;" vertex="1" parent="1">
          <mxGeometry x="504.5" y="1253" width="40" height="40" as="geometry" />
        </mxCell>
        <mxCell id="QbOERGdembJ3T9NwaVXq-17" value="F12" style="whiteSpace=wrap;html=1;aspect=fixed;fontSize=17;fontFamily=Verdana;fontStyle=1;fontColor=#AFB9C7;fillColor=#383E47;rounded=1;strokeColor=#1E1F20;" vertex="1" parent="1">
          <mxGeometry x="544.5" y="1245" width="40" height="40" as="geometry" />
        </mxCell>
        <mxCell id="QbOERGdembJ3T9NwaVXq-18" value="Prnt&lt;br style=&quot;font-size: 14px;&quot;&gt;Scrn" style="whiteSpace=wrap;html=1;aspect=fixed;fontSize=14;fontFamily=Verdana;fontStyle=1;fontColor=#AFB9C7;fillColor=#383E47;rounded=1;strokeColor=#1E1F20;" vertex="1" parent="1">
          <mxGeometry x="584.5" y="1230" width="40" height="40" as="geometry" />
        </mxCell>
        <mxCell id="QbOERGdembJ3T9NwaVXq-19" value="" style="whiteSpace=wrap;html=1;aspect=fixed;fontSize=17;fontFamily=Verdana;fontStyle=1;fontColor=#AFB9C7;fillColor=#383E47;rounded=1;strokeColor=#1E1F20;" vertex="1" parent="1">
          <mxGeometry x="624.5" y="1245" width="40" height="40" as="geometry" />
        </mxCell>
        <mxCell id="QbOERGdembJ3T9NwaVXq-20" value="" style="whiteSpace=wrap;html=1;aspect=fixed;fontSize=17;fontFamily=Verdana;fontStyle=1;fontColor=#AFB9C7;fillColor=#383E47;rounded=1;strokeColor=#1E1F20;" vertex="1" parent="1">
          <mxGeometry x="667.219298245614" y="1267.4561403508771" width="40" height="40" as="geometry" />
        </mxCell>
        <mxCell id="QbOERGdembJ3T9NwaVXq-21" value="BT&lt;br style=&quot;font-size: 14px;&quot;&gt;1" style="whiteSpace=wrap;html=1;aspect=fixed;fontSize=14;fontFamily=Verdana;fontStyle=1;fillColor=#5C8CCA;strokeColor=#456893;fontColor=#090e14;rounded=1;" vertex="1" parent="1">
          <mxGeometry x="504.5" y="1293" width="40" height="40" as="geometry" />
        </mxCell>
        <mxCell id="QbOERGdembJ3T9NwaVXq-22" value="" style="whiteSpace=wrap;html=1;aspect=fixed;fontSize=17;fontFamily=Verdana;fontStyle=1;fontColor=#AFB9C7;fillColor=#383E47;rounded=1;strokeColor=#1E1F20;" vertex="1" parent="1">
          <mxGeometry x="544.5" y="1285" width="40" height="40" as="geometry" />
        </mxCell>
        <mxCell id="QbOERGdembJ3T9NwaVXq-23" value="" style="whiteSpace=wrap;html=1;aspect=fixed;fontSize=17;fontFamily=Verdana;fontStyle=1;fontColor=#AFB9C7;fillColor=#383E47;rounded=1;strokeColor=#1E1F20;" vertex="1" parent="1">
          <mxGeometry x="584.5" y="1270" width="40" height="40" as="geometry" />
        </mxCell>
        <mxCell id="QbOERGdembJ3T9NwaVXq-24" value="" style="whiteSpace=wrap;html=1;aspect=fixed;fontSize=17;fontFamily=Verdana;fontStyle=1;fontColor=#AFB9C7;fillColor=#383E47;rounded=1;strokeColor=#1E1F20;" vertex="1" parent="1">
          <mxGeometry x="624.5" y="1285" width="40" height="40" as="geometry" />
        </mxCell>
        <mxCell id="QbOERGdembJ3T9NwaVXq-25" value="BL" style="whiteSpace=wrap;html=1;aspect=fixed;fontSize=17;fontFamily=Verdana;fontStyle=1;fontColor=#AFB9C7;fillColor=#383E47;rounded=1;strokeColor=#1E1F20;" vertex="1" parent="1">
          <mxGeometry x="667.219298245614" y="1307.4561403508771" width="40" height="40" as="geometry" />
        </mxCell>
        <mxCell id="QbOERGdembJ3T9NwaVXq-26" value="" style="whiteSpace=wrap;html=1;aspect=fixed;rotation=-30;fontSize=17;fontFamily=Verdana;fontStyle=1;fontColor=#AFB9C7;fillColor=#383E47;rounded=1;strokeColor=#1E1F20;" vertex="1" parent="1">
          <mxGeometry x="476.5" y="1357" width="40" height="40" as="geometry" />
        </mxCell>
        <mxCell id="QbOERGdembJ3T9NwaVXq-27" value="" style="whiteSpace=wrap;html=1;aspect=fixed;rotation=-15;fontSize=17;fontFamily=Verdana;fontStyle=1;fontColor=#333333;fillColor=none;strokeColor=#666666;rounded=1;shadow=0;dashed=1;glass=0;sketch=0;" vertex="1" parent="1">
          <mxGeometry x="524.5" y="1339" width="40" height="40" as="geometry" />
        </mxCell>
        <mxCell id="QbOERGdembJ3T9NwaVXq-28" value="&lt;span style=&quot;font-family: &amp;quot;segoe ui emoji&amp;quot;, &amp;quot;apple color emoji&amp;quot;, &amp;quot;noto color emoji&amp;quot;; font-size: 28px;&quot;&gt;⌥&lt;/span&gt;" style="whiteSpace=wrap;html=1;aspect=fixed;fontSize=17;fontFamily=Verdana;fontStyle=1;fillColor=#ffb86c;strokeColor=#d79b00;fontColor=#302316;rounded=1;" vertex="1" parent="1">
          <mxGeometry x="176.5" y="1270" width="40" height="40" as="geometry" />
        </mxCell>
        <mxCell id="QbOERGdembJ3T9NwaVXq-29" value="&lt;span style=&quot;font-family: &amp;quot;segoe ui emoji&amp;quot;, &amp;quot;apple color emoji&amp;quot;, &amp;quot;noto color emoji&amp;quot;; font-size: 28px;&quot;&gt;❖&lt;/span&gt;" style="whiteSpace=wrap;html=1;aspect=fixed;fontSize=17;fontFamily=Verdana;fontStyle=1;fillColor=#ffb86c;strokeColor=#d79b00;fontColor=#302316;rounded=1;" vertex="1" parent="1">
          <mxGeometry x="216.5" y="1245" width="40" height="40" as="geometry" />
        </mxCell>
        <mxCell id="QbOERGdembJ3T9NwaVXq-30" value="&lt;span style=&quot;font-family: &amp;quot;segoe ui emoji&amp;quot;, &amp;quot;apple color emoji&amp;quot;, &amp;quot;noto color emoji&amp;quot;; font-size: 28px;&quot;&gt;⇧&lt;/span&gt;" style="whiteSpace=wrap;html=1;aspect=fixed;fontSize=17;fontFamily=Verdana;fontStyle=1;fillColor=#ffb86c;strokeColor=#d79b00;fontColor=#302316;rounded=1;" vertex="1" parent="1">
          <mxGeometry x="256.5" y="1230" width="40" height="40" as="geometry" />
        </mxCell>
        <mxCell id="QbOERGdembJ3T9NwaVXq-31" value="&lt;span style=&quot;font-family: &amp;quot;segoe ui emoji&amp;quot;, &amp;quot;apple color emoji&amp;quot;, &amp;quot;noto color emoji&amp;quot;; font-size: 28px;&quot;&gt;✲&lt;/span&gt;" style="whiteSpace=wrap;html=1;aspect=fixed;fontSize=17;fontFamily=Verdana;fontStyle=1;fillColor=#ffb86c;strokeColor=#d79b00;fontColor=#302316;rounded=1;" vertex="1" parent="1">
          <mxGeometry x="296.5" y="1245" width="40" height="40" as="geometry" />
        </mxCell>
        <mxCell id="QbOERGdembJ3T9NwaVXq-32" value="&lt;font&gt;RAlt&lt;/font&gt;" style="whiteSpace=wrap;html=1;aspect=fixed;fontSize=17;fontFamily=Verdana;fontStyle=1;fillColor=#ffb86c;strokeColor=#d79b00;fontColor=#302316;rounded=1;" vertex="1" parent="1">
          <mxGeometry x="336.5" y="1253" width="40" height="40" as="geometry" />
        </mxCell>
        <mxCell id="QbOERGdembJ3T9NwaVXq-33" value="" style="whiteSpace=wrap;html=1;aspect=fixed;fontSize=17;fontFamily=Verdana;fontStyle=1;fontColor=#AFB9C7;fillColor=#383E47;rounded=1;strokeColor=#1E1F20;" vertex="1" parent="1">
          <mxGeometry x="168.5" y="1830" width="40" height="40" as="geometry" />
        </mxCell>
        <mxCell id="QbOERGdembJ3T9NwaVXq-34" value="" style="whiteSpace=wrap;html=1;aspect=fixed;fontSize=17;fontFamily=Verdana;fontStyle=1;fontColor=#AFB9C7;fillColor=#383E47;rounded=1;strokeColor=#1E1F20;" vertex="1" parent="1">
          <mxGeometry x="208.5" y="1805" width="40" height="40" as="geometry" />
        </mxCell>
        <mxCell id="QbOERGdembJ3T9NwaVXq-35" value="" style="whiteSpace=wrap;html=1;aspect=fixed;fontSize=17;fontFamily=Verdana;fontStyle=1;fontColor=#AFB9C7;fillColor=#383E47;rounded=1;strokeColor=#1E1F20;" vertex="1" parent="1">
          <mxGeometry x="248.5" y="1790" width="40" height="40" as="geometry" />
        </mxCell>
        <mxCell id="QbOERGdembJ3T9NwaVXq-36" value="È" style="whiteSpace=wrap;html=1;aspect=fixed;fontSize=17;fontFamily=Verdana;fontStyle=1;fontColor=#AFB9C7;fillColor=#383E47;rounded=1;strokeColor=#1E1F20;" vertex="1" parent="1">
          <mxGeometry x="288.5" y="1805" width="40" height="40" as="geometry" />
        </mxCell>
        <mxCell id="QbOERGdembJ3T9NwaVXq-37" value="" style="whiteSpace=wrap;html=1;aspect=fixed;fontSize=17;fontFamily=Verdana;fontStyle=1;fontColor=#AFB9C7;fillColor=#383E47;rounded=1;strokeColor=#1E1F20;" vertex="1" parent="1">
          <mxGeometry x="328.5" y="1813" width="40" height="40" as="geometry" />
        </mxCell>
        <mxCell id="QbOERGdembJ3T9NwaVXq-38" value="à" style="whiteSpace=wrap;html=1;aspect=fixed;fontSize=17;fontFamily=Verdana;fontStyle=1;fontColor=#AFB9C7;fillColor=#383E47;rounded=1;strokeColor=#1E1F20;" vertex="1" parent="1">
          <mxGeometry x="168.5" y="1870" width="40" height="40" as="geometry" />
        </mxCell>
        <mxCell id="QbOERGdembJ3T9NwaVXq-39" value="ì" style="whiteSpace=wrap;html=1;aspect=fixed;fontSize=17;fontFamily=Verdana;fontStyle=1;fontColor=#AFB9C7;fillColor=#383E47;rounded=1;strokeColor=#1E1F20;" vertex="1" parent="1">
          <mxGeometry x="208.5" y="1845" width="40" height="40" as="geometry" />
        </mxCell>
        <mxCell id="QbOERGdembJ3T9NwaVXq-40" value="ò" style="whiteSpace=wrap;html=1;aspect=fixed;fontSize=17;fontFamily=Verdana;fontStyle=1;fontColor=#AFB9C7;fillColor=#383E47;rounded=1;strokeColor=#1E1F20;" vertex="1" parent="1">
          <mxGeometry x="248.5" y="1830" width="40" height="40" as="geometry" />
        </mxCell>
        <mxCell id="QbOERGdembJ3T9NwaVXq-41" value="è" style="whiteSpace=wrap;html=1;aspect=fixed;fontSize=17;fontFamily=Verdana;fontStyle=1;fontColor=#AFB9C7;fillColor=#383E47;rounded=1;strokeColor=#1E1F20;" vertex="1" parent="1">
          <mxGeometry x="288.5" y="1845" width="40" height="40" as="geometry" />
        </mxCell>
        <mxCell id="QbOERGdembJ3T9NwaVXq-42" value="é" style="whiteSpace=wrap;html=1;aspect=fixed;fontSize=17;fontFamily=Verdana;fontStyle=1;fontColor=#AFB9C7;fillColor=#383E47;rounded=1;strokeColor=#1E1F20;" vertex="1" parent="1">
          <mxGeometry x="328.5" y="1853" width="40" height="40" as="geometry" />
        </mxCell>
        <mxCell id="QbOERGdembJ3T9NwaVXq-43" value="" style="whiteSpace=wrap;html=1;aspect=fixed;fontSize=17;fontFamily=Verdana;fontStyle=1;fontColor=#AFB9C7;fillColor=#383E47;rounded=1;strokeColor=#1E1F20;" vertex="1" parent="1">
          <mxGeometry x="168.5" y="1910" width="40" height="40" as="geometry" />
        </mxCell>
        <mxCell id="QbOERGdembJ3T9NwaVXq-44" value="" style="whiteSpace=wrap;html=1;aspect=fixed;fontSize=17;fontFamily=Verdana;fontStyle=1;fontColor=#AFB9C7;fillColor=#383E47;rounded=1;strokeColor=#1E1F20;" vertex="1" parent="1">
          <mxGeometry x="208.5" y="1885" width="40" height="40" as="geometry" />
        </mxCell>
        <mxCell id="QbOERGdembJ3T9NwaVXq-45" value="" style="whiteSpace=wrap;html=1;aspect=fixed;fontSize=17;fontFamily=Verdana;fontStyle=1;fontColor=#AFB9C7;fillColor=#383E47;rounded=1;strokeColor=#1E1F20;" vertex="1" parent="1">
          <mxGeometry x="248.5" y="1870" width="40" height="40" as="geometry" />
        </mxCell>
        <mxCell id="QbOERGdembJ3T9NwaVXq-46" value="ù" style="whiteSpace=wrap;html=1;aspect=fixed;fontSize=17;fontFamily=Verdana;fontStyle=1;fontColor=#AFB9C7;fillColor=#383E47;rounded=1;strokeColor=#1E1F20;" vertex="1" parent="1">
          <mxGeometry x="288.5" y="1885" width="40" height="40" as="geometry" />
        </mxCell>
        <mxCell id="QbOERGdembJ3T9NwaVXq-47" value="" style="whiteSpace=wrap;html=1;aspect=fixed;fontSize=17;fontFamily=Verdana;fontStyle=1;fontColor=#AFB9C7;fillColor=#383E47;rounded=1;strokeColor=#1E1F20;" vertex="1" parent="1">
          <mxGeometry x="328.5" y="1893" width="40" height="40" as="geometry" />
        </mxCell>
        <mxCell id="QbOERGdembJ3T9NwaVXq-48" value="" style="whiteSpace=wrap;html=1;aspect=fixed;rotation=15;fontSize=17;fontFamily=Verdana;fontStyle=1;fontColor=#AFB9C7;fillColor=#383E47;rounded=1;strokeColor=#1E1F20;" vertex="1" parent="1">
          <mxGeometry x="308.5" y="1939" width="40" height="40" as="geometry" />
        </mxCell>
        <mxCell id="QbOERGdembJ3T9NwaVXq-49" value="" style="whiteSpace=wrap;html=1;aspect=fixed;rotation=30;fontSize=17;fontFamily=Verdana;fontStyle=1;fontColor=#AFB9C7;fillColor=#383E47;rounded=1;strokeColor=#1E1F20;" vertex="1" parent="1">
          <mxGeometry x="356.5" y="1957" width="40" height="40" as="geometry" />
        </mxCell>
        <mxCell id="QbOERGdembJ3T9NwaVXq-50" value="" style="whiteSpace=wrap;html=1;aspect=fixed;fontSize=17;fontFamily=Verdana;fontStyle=1;fontColor=#AFB9C7;fillColor=#383E47;rounded=1;strokeColor=#1E1F20;" vertex="1" parent="1">
          <mxGeometry x="496.5" y="1813" width="40" height="40" as="geometry" />
        </mxCell>
        <mxCell id="QbOERGdembJ3T9NwaVXq-51" value="" style="whiteSpace=wrap;html=1;aspect=fixed;fontSize=17;fontFamily=Verdana;fontStyle=1;fontColor=#AFB9C7;fillColor=#383E47;rounded=1;strokeColor=#1E1F20;" vertex="1" parent="1">
          <mxGeometry x="536.5" y="1805" width="40" height="40" as="geometry" />
        </mxCell>
        <mxCell id="QbOERGdembJ3T9NwaVXq-52" value="" style="whiteSpace=wrap;html=1;aspect=fixed;fontSize=17;fontFamily=Verdana;fontStyle=1;fontColor=#AFB9C7;fillColor=#383E47;rounded=1;strokeColor=#1E1F20;" vertex="1" parent="1">
          <mxGeometry x="576.5" y="1790" width="40" height="40" as="geometry" />
        </mxCell>
        <mxCell id="QbOERGdembJ3T9NwaVXq-53" value="" style="whiteSpace=wrap;html=1;aspect=fixed;fontSize=17;fontFamily=Verdana;fontStyle=1;fontColor=#AFB9C7;fillColor=#383E47;rounded=1;strokeColor=#1E1F20;" vertex="1" parent="1">
          <mxGeometry x="616.5" y="1805" width="40" height="40" as="geometry" />
        </mxCell>
        <mxCell id="QbOERGdembJ3T9NwaVXq-54" value="" style="whiteSpace=wrap;html=1;aspect=fixed;fontSize=17;fontFamily=Verdana;fontStyle=1;fontColor=#AFB9C7;fillColor=#383E47;rounded=1;strokeColor=#1E1F20;" vertex="1" parent="1">
          <mxGeometry x="656.5" y="1830" width="40" height="40" as="geometry" />
        </mxCell>
        <mxCell id="QbOERGdembJ3T9NwaVXq-55" value="" style="whiteSpace=wrap;html=1;aspect=fixed;fontSize=17;fontFamily=Verdana;fontStyle=1;fontColor=#AFB9C7;fillColor=#383E47;rounded=1;strokeColor=#1E1F20;" vertex="1" parent="1">
          <mxGeometry x="496.5" y="1853" width="40" height="40" as="geometry" />
        </mxCell>
        <mxCell id="QbOERGdembJ3T9NwaVXq-56" value="" style="whiteSpace=wrap;html=1;aspect=fixed;fontSize=17;fontFamily=Verdana;fontStyle=1;fontColor=#AFB9C7;fillColor=#383E47;rounded=1;strokeColor=#1E1F20;" vertex="1" parent="1">
          <mxGeometry x="536.5" y="1845" width="40" height="40" as="geometry" />
        </mxCell>
        <mxCell id="QbOERGdembJ3T9NwaVXq-57" value="" style="whiteSpace=wrap;html=1;aspect=fixed;fontSize=17;fontFamily=Verdana;fontStyle=1;fontColor=#AFB9C7;fillColor=#383E47;rounded=1;strokeColor=#1E1F20;" vertex="1" parent="1">
          <mxGeometry x="576.5" y="1830" width="40" height="40" as="geometry" />
        </mxCell>
        <mxCell id="QbOERGdembJ3T9NwaVXq-58" value="" style="whiteSpace=wrap;html=1;aspect=fixed;fontSize=17;fontFamily=Verdana;fontStyle=1;fontColor=#AFB9C7;fillColor=#383E47;rounded=1;strokeColor=#1E1F20;" vertex="1" parent="1">
          <mxGeometry x="616.5" y="1845" width="40" height="40" as="geometry" />
        </mxCell>
        <mxCell id="QbOERGdembJ3T9NwaVXq-59" value="" style="whiteSpace=wrap;html=1;aspect=fixed;fontSize=17;fontFamily=Verdana;fontStyle=1;fontColor=#AFB9C7;fillColor=#383E47;rounded=1;strokeColor=#1E1F20;" vertex="1" parent="1">
          <mxGeometry x="656.5" y="1870" width="40" height="40" as="geometry" />
        </mxCell>
        <mxCell id="QbOERGdembJ3T9NwaVXq-60" value="" style="whiteSpace=wrap;html=1;aspect=fixed;fontSize=17;fontFamily=Verdana;fontStyle=1;fontColor=#AFB9C7;fillColor=#383E47;rounded=1;strokeColor=#1E1F20;" vertex="1" parent="1">
          <mxGeometry x="496.5" y="1893" width="40" height="40" as="geometry" />
        </mxCell>
        <mxCell id="QbOERGdembJ3T9NwaVXq-61" value="" style="whiteSpace=wrap;html=1;aspect=fixed;fontSize=17;fontFamily=Verdana;fontStyle=1;fontColor=#AFB9C7;fillColor=#383E47;rounded=1;strokeColor=#1E1F20;" vertex="1" parent="1">
          <mxGeometry x="536.5" y="1885" width="40" height="40" as="geometry" />
        </mxCell>
        <mxCell id="QbOERGdembJ3T9NwaVXq-62" value="" style="whiteSpace=wrap;html=1;aspect=fixed;fontSize=17;fontFamily=Verdana;fontStyle=1;fontColor=#AFB9C7;fillColor=#383E47;rounded=1;strokeColor=#1E1F20;" vertex="1" parent="1">
          <mxGeometry x="576.5" y="1870" width="40" height="40" as="geometry" />
        </mxCell>
        <mxCell id="QbOERGdembJ3T9NwaVXq-63" value="" style="whiteSpace=wrap;html=1;aspect=fixed;fontSize=17;fontFamily=Verdana;fontStyle=1;fontColor=#AFB9C7;fillColor=#383E47;rounded=1;strokeColor=#1E1F20;" vertex="1" parent="1">
          <mxGeometry x="616.5" y="1885" width="40" height="40" as="geometry" />
        </mxCell>
        <mxCell id="QbOERGdembJ3T9NwaVXq-64" value="" style="whiteSpace=wrap;html=1;aspect=fixed;fontSize=17;fontFamily=Verdana;fontStyle=1;fontColor=#AFB9C7;fillColor=#383E47;rounded=1;strokeColor=#1E1F20;" vertex="1" parent="1">
          <mxGeometry x="656.5" y="1910" width="40" height="40" as="geometry" />
        </mxCell>
        <mxCell id="QbOERGdembJ3T9NwaVXq-65" value="" style="whiteSpace=wrap;html=1;aspect=fixed;rotation=-30;fontSize=17;fontFamily=Verdana;fontStyle=1;fontColor=#333333;fillColor=none;strokeColor=#666666;rounded=1;shadow=0;dashed=1;glass=0;sketch=0;" vertex="1" parent="1">
          <mxGeometry x="468.5" y="1957" width="40" height="40" as="geometry" />
        </mxCell>
        <mxCell id="QbOERGdembJ3T9NwaVXq-66" value="" style="whiteSpace=wrap;html=1;aspect=fixed;rotation=-15;fontSize=17;fontFamily=Verdana;fontStyle=1;fontColor=#333333;fillColor=none;strokeColor=#666666;rounded=1;shadow=0;dashed=1;glass=0;sketch=0;" vertex="1" parent="1">
          <mxGeometry x="516.5" y="1939" width="40" height="40" as="geometry" />
        </mxCell>
        <mxCell id="QbOERGdembJ3T9NwaVXq-67" value="Acc" style="rounded=0;whiteSpace=wrap;html=1;fontFamily=Verdana;fontSize=17;fontStyle=1;fillColor=#6a00ff;strokeColor=#3700CC;fontColor=#ffffff;" vertex="1" parent="1">
          <mxGeometry x="327" y="1760" width="210" height="30" as="geometry" />
        </mxCell>
        <mxCell id="QbOERGdembJ3T9NwaVXq-68" style="edgeStyle=orthogonalEdgeStyle;rounded=1;orthogonalLoop=1;jettySize=auto;html=1;exitX=0.5;exitY=0;exitDx=0;exitDy=0;entryX=1;entryY=0.5;entryDx=0;entryDy=0;fontFamily=Verdana;fontSize=14;fontColor=#3399FF;strokeColor=#3399FF;" edge="1" parent="1" source="QbOERGdembJ3T9NwaVXq-70" target="QbOERGdembJ3T9NwaVXq-10">
          <mxGeometry relative="1" as="geometry" />
        </mxCell>
        <mxCell id="QbOERGdembJ3T9NwaVXq-69" style="edgeStyle=orthogonalEdgeStyle;rounded=1;orthogonalLoop=1;jettySize=auto;html=1;exitX=0.5;exitY=0;exitDx=0;exitDy=0;entryX=0;entryY=0.5;entryDx=0;entryDy=0;fontFamily=Verdana;fontSize=14;fontColor=#3399FF;strokeColor=#3399FF;" edge="1" parent="1" source="QbOERGdembJ3T9NwaVXq-70" target="QbOERGdembJ3T9NwaVXq-21">
          <mxGeometry relative="1" as="geometry" />
        </mxCell>
        <mxCell id="QbOERGdembJ3T9NwaVXq-70" value="Select Bluetooth Profile" style="text;html=1;strokeColor=none;fillColor=none;align=center;verticalAlign=middle;whiteSpace=wrap;rounded=0;shadow=0;glass=0;sketch=0;fontFamily=Verdana;fontSize=14;fontColor=#3399FF;" vertex="1" parent="1">
          <mxGeometry x="355" y="1420" width="169.5" height="20" as="geometry" />
        </mxCell>
        <mxCell id="QbOERGdembJ3T9NwaVXq-71" style="edgeStyle=orthogonalEdgeStyle;rounded=1;orthogonalLoop=1;jettySize=auto;html=1;entryX=0.5;entryY=1;entryDx=0;entryDy=0;fontFamily=Verdana;fontSize=14;fontColor=#3399FF;strokeColor=#3399FF;fillColor=#dae8fc;" edge="1" parent="1" source="QbOERGdembJ3T9NwaVXq-72" target="QbOERGdembJ3T9NwaVXq-6">
          <mxGeometry relative="1" as="geometry" />
        </mxCell>
        <mxCell id="QbOERGdembJ3T9NwaVXq-72" value="Reset active&lt;br&gt;bluetooth profile" style="text;html=1;strokeColor=none;fillColor=none;align=center;verticalAlign=middle;whiteSpace=wrap;rounded=0;shadow=0;glass=0;sketch=0;fontFamily=Verdana;fontSize=14;fontColor=#3399FF;" vertex="1" parent="1">
          <mxGeometry x="168.5" y="1401.5" width="136" height="38.5" as="geometry" />
        </mxCell>
        <mxCell id="QbOERGdembJ3T9NwaVXq-73" style="edgeStyle=orthogonalEdgeStyle;rounded=1;orthogonalLoop=1;jettySize=auto;html=1;exitX=0.5;exitY=1;exitDx=0;exitDy=0;fontFamily=Verdana;fontSize=14;fontColor=#3399FF;strokeColor=#FF8000;" edge="1" parent="1" source="QbOERGdembJ3T9NwaVXq-72" target="QbOERGdembJ3T9NwaVXq-72">
          <mxGeometry relative="1" as="geometry" />
        </mxCell>
        <mxCell id="QbOERGdembJ3T9NwaVXq-74" value="^" style="whiteSpace=wrap;html=1;aspect=fixed;fontSize=17;fontFamily=Verdana;fontStyle=1;fontColor=#AFB9C7;fillColor=#383E47;rounded=1;strokeColor=#1E1F20;" vertex="1" parent="1">
          <mxGeometry x="168.5" y="1550" width="40" height="40" as="geometry" />
        </mxCell>
        <mxCell id="QbOERGdembJ3T9NwaVXq-75" value="_" style="whiteSpace=wrap;html=1;aspect=fixed;fontSize=17;fontFamily=Verdana;fontStyle=1;fontColor=#AFB9C7;fillColor=#383E47;rounded=1;strokeColor=#1E1F20;" vertex="1" parent="1">
          <mxGeometry x="208.5" y="1525" width="40" height="40" as="geometry" />
        </mxCell>
        <mxCell id="QbOERGdembJ3T9NwaVXq-76" value="£" style="whiteSpace=wrap;html=1;aspect=fixed;fontSize=17;fontFamily=Verdana;fontStyle=1;fontColor=#AFB9C7;fillColor=#383E47;rounded=1;strokeColor=#1E1F20;" vertex="1" parent="1">
          <mxGeometry x="248.5" y="1510" width="40" height="40" as="geometry" />
        </mxCell>
        <mxCell id="QbOERGdembJ3T9NwaVXq-77" value="€" style="whiteSpace=wrap;html=1;aspect=fixed;fontSize=17;fontFamily=Verdana;fontStyle=1;fontColor=#AFB9C7;fillColor=#383E47;rounded=1;strokeColor=#1E1F20;" vertex="1" parent="1">
          <mxGeometry x="288.5" y="1525" width="40" height="40" as="geometry" />
        </mxCell>
        <mxCell id="QbOERGdembJ3T9NwaVXq-78" value="#" style="whiteSpace=wrap;html=1;aspect=fixed;fontSize=17;fontFamily=Verdana;fontStyle=1;fontColor=#AFB9C7;fillColor=#383E47;rounded=1;strokeColor=#1E1F20;" vertex="1" parent="1">
          <mxGeometry x="328.5" y="1533" width="40" height="40" as="geometry" />
        </mxCell>
        <mxCell id="QbOERGdembJ3T9NwaVXq-79" value="`" style="whiteSpace=wrap;html=1;aspect=fixed;fontSize=17;fontFamily=Verdana;fontStyle=1;fontColor=#AFB9C7;fillColor=#383E47;rounded=1;strokeColor=#1E1F20;" vertex="1" parent="1">
          <mxGeometry x="168.5" y="1590" width="40" height="40" as="geometry" />
        </mxCell>
        <mxCell id="QbOERGdembJ3T9NwaVXq-80" value="~" style="whiteSpace=wrap;html=1;aspect=fixed;fontSize=17;fontFamily=Verdana;fontStyle=1;fontColor=#AFB9C7;fillColor=#383E47;rounded=1;strokeColor=#1E1F20;" vertex="1" parent="1">
          <mxGeometry x="208.5" y="1565" width="40" height="40" as="geometry" />
        </mxCell>
        <mxCell id="QbOERGdembJ3T9NwaVXq-81" value="\" style="whiteSpace=wrap;html=1;aspect=fixed;fontSize=17;fontFamily=Verdana;fontStyle=1;fontColor=#AFB9C7;fillColor=#383E47;rounded=1;strokeColor=#1E1F20;" vertex="1" parent="1">
          <mxGeometry x="248.5" y="1550" width="40" height="40" as="geometry" />
        </mxCell>
        <mxCell id="QbOERGdembJ3T9NwaVXq-82" value="|" style="whiteSpace=wrap;html=1;aspect=fixed;fontSize=17;fontFamily=Verdana;fontStyle=1;fontColor=#AFB9C7;fillColor=#383E47;rounded=1;strokeColor=#1E1F20;" vertex="1" parent="1">
          <mxGeometry x="288.5" y="1565" width="40" height="40" as="geometry" />
        </mxCell>
        <mxCell id="QbOERGdembJ3T9NwaVXq-83" value="&amp;amp;" style="whiteSpace=wrap;html=1;aspect=fixed;fontSize=17;fontFamily=Verdana;fontStyle=1;fontColor=#AFB9C7;fillColor=#383E47;rounded=1;strokeColor=#1E1F20;" vertex="1" parent="1">
          <mxGeometry x="328.5" y="1573" width="40" height="40" as="geometry" />
        </mxCell>
        <mxCell id="QbOERGdembJ3T9NwaVXq-84" value="" style="whiteSpace=wrap;html=1;aspect=fixed;fontSize=17;fontFamily=Verdana;fontStyle=1;fontColor=#AFB9C7;fillColor=#383E47;rounded=1;strokeColor=#1E1F20;" vertex="1" parent="1">
          <mxGeometry x="168.5" y="1630" width="40" height="40" as="geometry" />
        </mxCell>
        <mxCell id="QbOERGdembJ3T9NwaVXq-85" value="" style="whiteSpace=wrap;html=1;aspect=fixed;fontSize=17;fontFamily=Verdana;fontStyle=1;fontColor=#AFB9C7;fillColor=#383E47;rounded=1;strokeColor=#1E1F20;" vertex="1" parent="1">
          <mxGeometry x="208.5" y="1605" width="40" height="40" as="geometry" />
        </mxCell>
        <mxCell id="QbOERGdembJ3T9NwaVXq-86" value="" style="whiteSpace=wrap;html=1;aspect=fixed;fontSize=17;fontFamily=Verdana;fontStyle=1;fontColor=#AFB9C7;fillColor=#383E47;rounded=1;strokeColor=#1E1F20;" vertex="1" parent="1">
          <mxGeometry x="248.5" y="1590" width="40" height="40" as="geometry" />
        </mxCell>
        <mxCell id="QbOERGdembJ3T9NwaVXq-87" value="" style="whiteSpace=wrap;html=1;aspect=fixed;fontSize=17;fontFamily=Verdana;fontStyle=1;fontColor=#AFB9C7;fillColor=#383E47;rounded=1;strokeColor=#1E1F20;" vertex="1" parent="1">
          <mxGeometry x="288.5" y="1605" width="40" height="40" as="geometry" />
        </mxCell>
        <mxCell id="QbOERGdembJ3T9NwaVXq-88" value="" style="whiteSpace=wrap;html=1;aspect=fixed;fontSize=17;fontFamily=Verdana;fontStyle=1;fontColor=#AFB9C7;fillColor=#383E47;rounded=1;strokeColor=#1E1F20;" vertex="1" parent="1">
          <mxGeometry x="328.5" y="1613" width="40" height="40" as="geometry" />
        </mxCell>
        <mxCell id="QbOERGdembJ3T9NwaVXq-89" value="" style="whiteSpace=wrap;html=1;aspect=fixed;rotation=15;fontSize=17;fontFamily=Verdana;fontStyle=1;fontColor=#AFB9C7;fillColor=#383E47;rounded=1;strokeColor=#1E1F20;" vertex="1" parent="1">
          <mxGeometry x="308.5" y="1659" width="40" height="40" as="geometry" />
        </mxCell>
        <mxCell id="QbOERGdembJ3T9NwaVXq-90" value="" style="whiteSpace=wrap;html=1;aspect=fixed;rotation=30;fontSize=17;fontFamily=Verdana;fontStyle=1;fontColor=#333333;fillColor=none;strokeColor=#666666;rounded=1;shadow=0;dashed=1;glass=0;sketch=0;" vertex="1" parent="1">
          <mxGeometry x="356.5" y="1677" width="40" height="40" as="geometry" />
        </mxCell>
        <mxCell id="QbOERGdembJ3T9NwaVXq-91" value="" style="whiteSpace=wrap;html=1;aspect=fixed;fontSize=17;fontFamily=Verdana;fontStyle=1;fontColor=#AFB9C7;fillColor=#383E47;rounded=1;strokeColor=#1E1F20;" vertex="1" parent="1">
          <mxGeometry x="496.5" y="1533" width="40" height="40" as="geometry" />
        </mxCell>
        <mxCell id="QbOERGdembJ3T9NwaVXq-92" value="" style="whiteSpace=wrap;html=1;aspect=fixed;fontSize=17;fontFamily=Verdana;fontStyle=1;fontColor=#AFB9C7;fillColor=#383E47;rounded=1;strokeColor=#1E1F20;" vertex="1" parent="1">
          <mxGeometry x="536.5" y="1525" width="40" height="40" as="geometry" />
        </mxCell>
        <mxCell id="QbOERGdembJ3T9NwaVXq-93" value="" style="whiteSpace=wrap;html=1;aspect=fixed;fontSize=17;fontFamily=Verdana;fontStyle=1;fontColor=#AFB9C7;fillColor=#383E47;rounded=1;strokeColor=#1E1F20;" vertex="1" parent="1">
          <mxGeometry x="576.5" y="1510" width="40" height="40" as="geometry" />
        </mxCell>
        <mxCell id="QbOERGdembJ3T9NwaVXq-94" value="" style="whiteSpace=wrap;html=1;aspect=fixed;fontSize=17;fontFamily=Verdana;fontStyle=1;fontColor=#AFB9C7;fillColor=#383E47;rounded=1;strokeColor=#1E1F20;" vertex="1" parent="1">
          <mxGeometry x="616.5" y="1525" width="40" height="40" as="geometry" />
        </mxCell>
        <mxCell id="QbOERGdembJ3T9NwaVXq-95" value="" style="whiteSpace=wrap;html=1;aspect=fixed;fontSize=17;fontFamily=Verdana;fontStyle=1;fontColor=#AFB9C7;fillColor=#383E47;rounded=1;strokeColor=#1E1F20;" vertex="1" parent="1">
          <mxGeometry x="656.5" y="1550" width="40" height="40" as="geometry" />
        </mxCell>
        <mxCell id="QbOERGdembJ3T9NwaVXq-96" value="" style="whiteSpace=wrap;html=1;aspect=fixed;fontSize=17;fontFamily=Verdana;fontStyle=1;fontColor=#AFB9C7;fillColor=#383E47;rounded=1;strokeColor=#1E1F20;" vertex="1" parent="1">
          <mxGeometry x="496.5" y="1573" width="40" height="40" as="geometry" />
        </mxCell>
        <mxCell id="QbOERGdembJ3T9NwaVXq-97" value="" style="whiteSpace=wrap;html=1;aspect=fixed;fontSize=17;fontFamily=Verdana;fontStyle=1;fontColor=#AFB9C7;fillColor=#383E47;rounded=1;strokeColor=#1E1F20;" vertex="1" parent="1">
          <mxGeometry x="536.5" y="1565" width="40" height="40" as="geometry" />
        </mxCell>
        <mxCell id="QbOERGdembJ3T9NwaVXq-98" value="" style="whiteSpace=wrap;html=1;aspect=fixed;fontSize=17;fontFamily=Verdana;fontStyle=1;fontColor=#AFB9C7;fillColor=#383E47;rounded=1;strokeColor=#1E1F20;" vertex="1" parent="1">
          <mxGeometry x="576.5" y="1550" width="40" height="40" as="geometry" />
        </mxCell>
        <mxCell id="QbOERGdembJ3T9NwaVXq-99" value="" style="whiteSpace=wrap;html=1;aspect=fixed;fontSize=17;fontFamily=Verdana;fontStyle=1;fontColor=#AFB9C7;fillColor=#383E47;rounded=1;strokeColor=#1E1F20;" vertex="1" parent="1">
          <mxGeometry x="616.5" y="1565" width="40" height="40" as="geometry" />
        </mxCell>
        <mxCell id="QbOERGdembJ3T9NwaVXq-100" value="" style="whiteSpace=wrap;html=1;aspect=fixed;fontSize=17;fontFamily=Verdana;fontStyle=1;fontColor=#AFB9C7;fillColor=#383E47;rounded=1;strokeColor=#1E1F20;" vertex="1" parent="1">
          <mxGeometry x="656.5" y="1590" width="40" height="40" as="geometry" />
        </mxCell>
        <mxCell id="QbOERGdembJ3T9NwaVXq-101" value="" style="whiteSpace=wrap;html=1;aspect=fixed;fontSize=17;fontFamily=Verdana;fontStyle=1;fontColor=#AFB9C7;fillColor=#383E47;rounded=1;strokeColor=#1E1F20;" vertex="1" parent="1">
          <mxGeometry x="496.5" y="1613" width="40" height="40" as="geometry" />
        </mxCell>
        <mxCell id="QbOERGdembJ3T9NwaVXq-102" value="" style="whiteSpace=wrap;html=1;aspect=fixed;fontSize=17;fontFamily=Verdana;fontStyle=1;fontColor=#AFB9C7;fillColor=#383E47;rounded=1;strokeColor=#1E1F20;" vertex="1" parent="1">
          <mxGeometry x="536.5" y="1605" width="40" height="40" as="geometry" />
        </mxCell>
        <mxCell id="QbOERGdembJ3T9NwaVXq-103" value="" style="whiteSpace=wrap;html=1;aspect=fixed;fontSize=17;fontFamily=Verdana;fontStyle=1;fontColor=#AFB9C7;fillColor=#383E47;rounded=1;strokeColor=#1E1F20;" vertex="1" parent="1">
          <mxGeometry x="576.5" y="1590" width="40" height="40" as="geometry" />
        </mxCell>
        <mxCell id="QbOERGdembJ3T9NwaVXq-104" value="" style="whiteSpace=wrap;html=1;aspect=fixed;fontSize=17;fontFamily=Verdana;fontStyle=1;fontColor=#AFB9C7;fillColor=#383E47;rounded=1;strokeColor=#1E1F20;" vertex="1" parent="1">
          <mxGeometry x="616.5" y="1605" width="40" height="40" as="geometry" />
        </mxCell>
        <mxCell id="QbOERGdembJ3T9NwaVXq-105" value="" style="whiteSpace=wrap;html=1;aspect=fixed;fontSize=17;fontFamily=Verdana;fontStyle=1;fontColor=#AFB9C7;fillColor=#383E47;rounded=1;strokeColor=#1E1F20;" vertex="1" parent="1">
          <mxGeometry x="656.5" y="1630" width="40" height="40" as="geometry" />
        </mxCell>
        <mxCell id="QbOERGdembJ3T9NwaVXq-106" value="" style="whiteSpace=wrap;html=1;aspect=fixed;rotation=-30;fontSize=17;fontFamily=Verdana;fontStyle=1;fontColor=#AFB9C7;fillColor=#383E47;rounded=1;strokeColor=#1E1F20;" vertex="1" parent="1">
          <mxGeometry x="468.5" y="1677" width="40" height="40" as="geometry" />
        </mxCell>
        <mxCell id="QbOERGdembJ3T9NwaVXq-107" value="" style="whiteSpace=wrap;html=1;aspect=fixed;rotation=-15;fontSize=17;fontFamily=Verdana;fontStyle=1;fontColor=#333333;fillColor=none;strokeColor=#666666;rounded=1;shadow=0;dashed=1;glass=0;sketch=0;" vertex="1" parent="1">
          <mxGeometry x="516.5" y="1659" width="40" height="40" as="geometry" />
        </mxCell>
        <mxCell id="QbOERGdembJ3T9NwaVXq-108" value="Sym2" style="rounded=0;whiteSpace=wrap;html=1;fontFamily=Verdana;fontSize=17;fillColor=#d80073;strokeColor=#A50040;fontColor=#ffffff;fontStyle=1" vertex="1" parent="1">
          <mxGeometry x="327" y="1480" width="210" height="30" as="geometry" />
        </mxCell>
        <mxCell id="QbOERGdembJ3T9NwaVXq-109" value="" style="whiteSpace=wrap;html=1;aspect=fixed;rotation=15;fontSize=17;fontFamily=Verdana;fontStyle=1;fontColor=#333333;fillColor=none;strokeColor=#666666;rounded=1;shadow=0;dashed=1;glass=0;sketch=0;" vertex="1" parent="1">
          <mxGeometry x="316.5" y="1339" width="40" height="40" as="geometry" />
        </mxCell>
        <mxCell id="QbOERGdembJ3T9NwaVXq-110" value="" style="whiteSpace=wrap;html=1;aspect=fixed;rotation=30;fontSize=17;fontFamily=Verdana;fontStyle=1;fontColor=#AFB9C7;fillColor=#383E47;rounded=1;strokeColor=#1E1F20;" vertex="1" parent="1">
          <mxGeometry x="364.5" y="1357" width="40" height="40" as="geometry" />
        </mxCell>
        <mxCell id="QbOERGdembJ3T9NwaVXq-111" style="edgeStyle=orthogonalEdgeStyle;rounded=0;orthogonalLoop=1;jettySize=auto;html=1;exitX=0.5;exitY=0;exitDx=0;exitDy=0;entryX=0.5;entryY=1;entryDx=0;entryDy=0;fillColor=#dae8fc;strokeColor=#6c8ebf;" edge="1" parent="1" source="QbOERGdembJ3T9NwaVXq-112" target="QbOERGdembJ3T9NwaVXq-25">
          <mxGeometry relative="1" as="geometry" />
        </mxCell>
        <mxCell id="QbOERGdembJ3T9NwaVXq-112" value="Bootloader&lt;br&gt;(flash new firmware)" style="text;html=1;strokeColor=none;fillColor=none;align=center;verticalAlign=middle;whiteSpace=wrap;rounded=0;shadow=0;glass=0;sketch=0;fontFamily=Verdana;fontSize=14;fontColor=#3399FF;" vertex="1" parent="1">
          <mxGeometry x="564.5" y="1390" width="169.5" height="40" as="geometry" />
        </mxCell>
      </root>
    </mxGraphModel>
  </diagram>
</mxfile>
